<?xml version="1.0" encoding="UTF-8"?>
<svg version="1.1" xmlns="http://www.w3.org/2000/svg" width="300" height="168">
<path d="M0 0 C99 0 198 0 300 0 C300 55.44 300 110.88 300 168 C201 168 102 168 0 168 C0 112.56 0 57.12 0 0 Z " fill="#1E0B13" transform="translate(0,0)"/>
<path d="M0 0 C2.2673805 -0.00971353 4.5338574 -0.04073955 6.80102539 -0.07226562 C8.24047313 -0.07879505 9.67992735 -0.08404576 11.11938477 -0.08789062 C12.43156982 -0.09723633 13.74375488 -0.10658203 15.09570312 -0.11621094 C18.34204102 0.24023438 18.34204102 0.24023438 19.91287231 1.43559265 C21.68559958 3.67405309 22.4922112 5.78108246 23.45507812 8.47094727 C24.03599464 10.07390404 24.03599464 10.07390404 24.62864685 11.70924377 C25.03809036 12.86544724 25.44753387 14.0216507 25.86938477 15.21289062 C26.29957413 16.40571152 26.72976349 17.59853241 27.17298889 18.82749939 C28.31671114 22.00266559 29.45325795 25.18020889 30.58612061 28.35925293 C32.17417402 32.81016367 33.7754749 37.2563273 35.37538147 41.70298767 C36.22515963 44.0672076 37.07233708 46.43236448 37.91648865 48.79859924 C40.01753629 54.66807611 42.19822858 60.47242016 44.63087463 66.21336365 C45.34204102 68.24023438 45.34204102 68.24023438 45.34204102 71.24023438 C44.30756836 70.95019531 44.30756836 70.95019531 43.25219727 70.65429688 C34.27684554 68.16729955 25.62296876 66.12413226 16.34204102 65.24023438 C13.35687682 57.24798959 10.66500961 49.18617397 8.09204102 41.05273438 C7.72852539 39.90998047 7.36500977 38.76722656 6.99047852 37.58984375 C6.10564504 34.80727532 5.22286868 32.02407289 4.34204102 29.24023438 C3.02204102 29.24023438 1.70204102 29.24023438 0.34204102 29.24023438 C-3.61795898 41.12023437 -7.57795898 53.00023438 -11.65795898 65.24023438 C-18.58795898 66.23023437 -18.58795898 66.23023437 -25.65795898 67.24023438 C-29.06418145 68.16920414 -32.33471509 69.10205378 -35.65795898 70.24023438 C-37.45233398 70.82804687 -37.45233398 70.82804687 -39.28295898 71.42773438 C-40.45858398 71.82992187 -40.45858398 71.82992187 -41.65795898 72.24023438 C-39.72903757 65.47104926 -37.47543864 58.91645264 -34.90795898 52.36523438 C-32.19047877 45.34445158 -29.5998411 38.29889161 -27.15795898 31.17773438 C-24.70636609 24.07414641 -22.10334922 17.04335933 -19.34545898 10.05273438 C-19.00772461 9.18447021 -18.66999023 8.31620605 -18.32202148 7.42163086 C-17.84442383 6.22775757 -17.84442383 6.22775757 -17.35717773 5.00976562 C-16.93698364 3.95172729 -16.93698364 3.95172729 -16.50830078 2.87231445 C-13.98072167 -1.97892481 -4.84577255 0.01259869 0 0 Z " fill="#D6D4D5" transform="translate(149.657958984375,34.759765625)"/>
<path d="M0 0 C1.67542976 0.28604898 3.34385343 0.61781233 5 1 C6.40731115 5.48359048 7.81311251 9.9676505 9.2175293 14.45214844 C9.69530647 15.97701746 10.17349278 17.50175836 10.65209961 19.02636719 C11.34076338 21.22036557 12.0279447 23.41482358 12.71484375 25.609375 C12.92842026 26.2886908 13.14199677 26.96800659 13.36204529 27.66790771 C14.16418271 30.2345053 14.95023507 32.76940608 15.51782227 35.39941406 C15.67694092 35.92760742 15.83605957 36.45580078 16 37 C16.99 37.495 16.99 37.495 18 38 C20 39 20 39 20.75 41.125 C20.8325 41.74375 20.915 42.3625 21 43 C20.01 43.495 20.01 43.495 19 44 C19.4846875 44.39832031 19.969375 44.79664063 20.46875 45.20703125 C22.92316301 48.08094852 22.53391541 50.71808462 22.40625 54.3671875 C21.7337399 58.72557026 19.99761733 61.794414 17 65 C14.99594028 66.46210583 12.9560429 67.7039078 10.80078125 68.9296875 C8.44617924 70.32916895 7.22847906 71.54304188 6 74 C5.27518916 77.65274469 5.27518916 77.65274469 5 81 C2.49303771 80.04908327 1.05598755 79.06198622 -0.75 77.0625 C-2.63654688 72.44046014 -2.23305871 67.92876009 -2 63 C-4.97 62.67 -7.94 62.34 -11 62 C-11.66 62.99 -12.32 63.98 -13 65 C-13.66 65 -14.32 65 -15 65 C-15.66 64.01 -16.32 63.02 -17 62 C-17.66 62.99 -18.32 63.98 -19 65 C-21 60.25 -21 60.25 -21 58 C-21.66 57.34 -22.32 56.68 -23 56 C-22.34 56 -21.68 56 -21 56 C-21.33 55.34 -21.66 54.68 -22 54 C-22.3125 50.625 -22.3125 50.625 -22 47 C-20.0625 44.75 -20.0625 44.75 -18 43 C-17.67 42.01 -17.34 41.02 -17 40 C-17.99 39.67 -18.98 39.34 -20 39 C-20.66 38.34 -21.32 37.68 -22 37 C-18.7 37 -15.4 37 -12 37 C-11.76410156 35.80375 -11.52820313 34.6075 -11.28515625 33.375 C-9.81550533 26.7661028 -7.60185225 20.4075768 -5.4375 14 C-5.02564453 12.76121094 -4.61378906 11.52242187 -4.18945312 10.24609375 C-1.13362536 1.13362536 -1.13362536 1.13362536 0 0 Z " fill="#340F21" transform="translate(150,63)"/>
<path d="M0 0 C0.66 0 1.32 0 2 0 C2 0.66 2 1.32 2 2 C15.42708689 5.6918995 26.62788999 6.04777384 40 2 C40.62564325 8.00617516 40.11632732 12.20248866 36.6328125 17.21875 C34.33536257 19.72505902 31.73746209 21.25948484 28.80078125 22.9296875 C26.44617924 24.32916895 25.22847906 25.54304188 24 28 C23.27518916 31.65274469 23.27518916 31.65274469 23 35 C20.49303771 34.04908327 19.05598755 33.06198622 17.25 31.0625 C15.36345312 26.44046014 15.76694129 21.92876009 16 17 C13.03 16.67 10.06 16.34 7 16 C6.34 16.99 5.68 17.98 5 19 C4.34 19 3.68 19 3 19 C-0.11601169 13.85180678 -0.9591165 8.93832871 -1 3 C-0.67 2.01 -0.34 1.02 0 0 Z " fill="#C3307B" transform="translate(132,109)"/>
<path d="M0 0 C0.72328491 -0.00673233 1.44656982 -0.01346466 2.19177246 -0.020401 C3.88866127 -0.02277756 5.58548962 0.02792442 7.28125 0.08984375 C8.28125 1.08984375 8.28125 1.08984375 8.28125 10.08984375 C-10.85875 10.08984375 -29.99875 10.08984375 -49.71875 10.08984375 C-49.71875 2.08984375 -49.71875 2.08984375 -48.71875 1.08984375 C-46.03488318 0.92889595 -43.37421575 0.82994707 -40.6875 0.7734375 C-39.86358765 0.7526564 -39.03967529 0.73187531 -38.1907959 0.71046448 C-36.43210253 0.66707253 -34.67334948 0.62604702 -32.91455078 0.5871582 C-30.28532642 0.52882095 -27.65636303 0.46336599 -25.02734375 0.39648438 C-16.68582921 0.19181307 -8.34401681 0.04192945 0 0 Z " fill="#2D1A24" transform="translate(103.71875,157.91015625)"/>
<path d="M0 0 C0.99 0 1.98 0 3 0 C4.125 7.75 4.125 7.75 3 10 C3.99 9.67 4.98 9.34 6 9 C5.25 14.75 5.25 14.75 3 17 C2.63047951 19.12860662 2.63047951 19.12860662 2.5859375 21.5703125 C2.54726562 22.46621094 2.50859375 23.36210938 2.46875 24.28515625 C2.42234375 25.69087891 2.42234375 25.69087891 2.375 27.125 C2.33632812 28.06988281 2.29765625 29.01476562 2.2578125 29.98828125 C2.16338654 32.32532375 2.07781606 34.66235501 2 37 C0.7625 36.9690625 -0.475 36.938125 -1.75 36.90625 C-4.8494074 36.90625 -7.18615234 37.09307617 -10 38.5 C-10.99 38.995 -11.98 39.49 -13 40 C-14.32 39.01 -15.64 38.02 -17 37 C-15.35 37 -13.7 37 -12 37 C-11.64615234 35.205625 -11.64615234 35.205625 -11.28515625 33.375 C-9.81550533 26.7661028 -7.60185225 20.4075768 -5.4375 14 C-5.02564453 12.76121094 -4.61378906 11.52242187 -4.18945312 10.24609375 C-1.13362536 1.13362536 -1.13362536 1.13362536 0 0 Z " fill="#2D0C19" transform="translate(150,63)"/>
<path d="M0 0 C6.27 0 12.54 0 19 0 C18.855625 2.59875 18.71125 5.1975 18.5625 7.875 C18.49784546 9.10065674 18.49784546 9.10065674 18.43188477 10.35107422 C18.11111111 15.77777778 18.11111111 15.77777778 17 18 C11.39 18 5.78 18 0 18 C0 12.06 0 6.12 0 0 Z " fill="#1C0003" transform="translate(55,140)"/>
<path d="M0 0 C0.0270043 1.45823212 0.04639787 2.91660675 0.0625 4.375 C0.07410156 5.18710938 0.08570313 5.99921875 0.09765625 6.8359375 C0 9 0 9 -1 11 C-1.66 11.309375 -2.32 11.61875 -3 11.9375 C-5.34608221 12.8891846 -5.34608221 12.8891846 -6 16 C-9.19601904 18.0338303 -11.06019937 19.10215224 -14.875 18.6875 C-15.57625 18.460625 -16.2775 18.23375 -17 18 C-17.33 18.66 -17.66 19.32 -18 20 C-18.144375 19.401875 -18.28875 18.80375 -18.4375 18.1875 C-18.8872439 16.43849596 -19.42892341 14.71322977 -20 13 C-20.226875 11.989375 -20.45375 10.97875 -20.6875 9.9375 C-21.74130634 6.69643984 -21.74130634 6.69643984 -25.125 5.625 C-26.07375 5.41875 -27.0225 5.2125 -28 5 C-28 4.67 -28 4.34 -28 4 C-26.96101562 3.96261719 -25.92203125 3.92523438 -24.8515625 3.88671875 C-17.51808983 3.56201856 -10.80516802 3.09539003 -3.8203125 0.62109375 C-2 0 -2 0 0 0 Z " fill="#C13392" transform="translate(172,111)"/>
<path d="M0 0 C0.80566406 0.00322266 1.61132812 0.00644531 2.44140625 0.00976562 C3.70404297 0.02233398 3.70404297 0.02233398 4.9921875 0.03515625 C5.84167969 0.03966797 6.69117188 0.04417969 7.56640625 0.04882812 C9.66669659 0.06062751 11.7669508 0.07856319 13.8671875 0.09765625 C13.8671875 3.06765625 13.8671875 6.03765625 13.8671875 9.09765625 C7.2671875 9.09765625 0.6671875 9.09765625 -6.1328125 9.09765625 C-6.1328125 6.45765625 -6.1328125 3.81765625 -6.1328125 1.09765625 C-3.8362755 -0.05061225 -2.54968083 -0.0179555 0 0 Z " fill="#110102" transform="translate(40.1328125,158.90234375)"/>
<path d="M0 0 C0.0270043 1.45823212 0.04639787 2.91660675 0.0625 4.375 C0.07410156 5.18710938 0.08570313 5.99921875 0.09765625 6.8359375 C0 9 0 9 -1 11 C-1.66 11.309375 -2.32 11.61875 -3 11.9375 C-5.34608221 12.8891846 -5.34608221 12.8891846 -6 16 C-7.65 16.33 -9.3 16.66 -11 17 C-11.33 15.68 -11.66 14.36 -12 13 C-11.34 13 -10.68 13 -10 13 C-10 12.34 -10 11.68 -10 11 C-10.66 11 -11.32 11 -12 11 C-12.3125 8.6875 -12.3125 8.6875 -12 6 C-9.13896577 3.75756777 -7.65923696 3 -4 3 C-4 2.34 -4 1.68 -4 1 C-2 0 -2 0 0 0 Z " fill="#C535A6" transform="translate(172,111)"/>
<path d="M0 0 C1.98567708 0.26041667 3.97135417 0.52083333 5.95703125 0.78125 C8.15471706 1.053233 8.15471706 1.053233 11 1 C12.68236471 1.62599617 14.3523962 2.28752268 16 3 C15.38125 3.144375 14.7625 3.28875 14.125 3.4375 C11.96741678 3.93152225 11.96741678 3.93152225 10 5 C9.67 5.99 9.34 6.98 9 8 C8.34 8 7.68 8 7 8 C7.33 8.99 7.66 9.98 8 11 C7.34 11 6.68 11 6 11 C6 10.34 6 9.68 6 9 C5.34 9 4.68 9 4 9 C3.92839705 13.08136841 3.95230085 16.71380511 4.625 20.75 C5.00860345 24.07456328 4.84511032 25.28660246 3 28 C1 23.25 1 23.25 1 21 C0.34 20.34 -0.32 19.68 -1 19 C-0.34 19 0.32 19 1 19 C0.67 18.34 0.34 17.68 0 17 C-0.3125 13.625 -0.3125 13.625 0 10 C1.9375 7.75 1.9375 7.75 4 6 C4.33 5.01 4.66 4.02 5 3 C4.01 2.67 3.02 2.34 2 2 C1.34 1.34 0.68 0.68 0 0 Z " fill="#411027" transform="translate(128,100)"/>
<path d="M0 0 C0.66 0.33 1.32 0.66 2 1 C0.68518188 5.20031086 -0.66595456 6.83920803 -4.4375 9.0625 C-7.74056409 11.02692527 -9.97308948 12.69525458 -12 16 C-12.72481084 19.65274469 -12.72481084 19.65274469 -13 23 C-15.50696229 22.04908327 -16.94401245 21.06198622 -18.75 19.0625 C-20.63654688 14.44046014 -20.23305871 9.92876009 -20 5 C-19.67 5 -19.34 5 -19 5 C-18.95101562 5.71027344 -18.90203125 6.42054687 -18.8515625 7.15234375 C-18.77679688 8.07144531 -18.70203125 8.99054688 -18.625 9.9375 C-18.55539063 10.85402344 -18.48578125 11.77054688 -18.4140625 12.71484375 C-18.27742187 13.46894531 -18.14078125 14.22304687 -18 15 C-17.34 15.33 -16.68 15.66 -16 16 C-16 12.7 -16 9.4 -16 6 C-15.01 6 -14.02 6 -13 6 C-13 6.66 -13 7.32 -13 8 C-9.28400809 8.20086443 -8.22791555 8.1519437 -5 6 C-4.01 6 -3.02 6 -2 6 C-1.855625 5.38125 -1.71125 4.7625 -1.5625 4.125 C-1 2 -1 2 0 0 Z " fill="#B7367E" transform="translate(168,121)"/>
<path d="M0 0 C0.66 0 1.32 0 2 0 C2 0.66 2 1.32 2 2 C6.29 2.99 10.58 3.98 15 5 C12 7 12 7 8.5 6.75 C5 6 5 6 2 4 C2.33 6.97 2.66 9.94 3 13 C5.64 12.67 8.28 12.34 11 12 C11.33 11.01 11.66 10.02 12 9 C12 9.99 12 10.98 12 12 C13.32 12.33 14.64 12.66 16 13 C16 14.32 16 15.64 16 17 C13.03 16.67 10.06 16.34 7 16 C6.34 16.99 5.68 17.98 5 19 C4.34 19 3.68 19 3 19 C-0.11601169 13.85180678 -0.9591165 8.93832871 -1 3 C-0.67 2.01 -0.34 1.02 0 0 Z " fill="#A43159" transform="translate(132,109)"/>
<path d="M0 0 C0.33 0.66 0.66 1.32 1 2 C2.65 2 4.3 2 6 2 C6.50615298 3.26839526 7.00469099 4.53983102 7.5 5.8125 C7.7784375 6.52019531 8.056875 7.22789063 8.34375 7.95703125 C9 10 9 10 9 13 C8.31035156 12.80664062 7.62070313 12.61328125 6.91015625 12.4140625 C0.96828666 10.76761853 -4.96970983 9.28514381 -11 8 C-11 7.67 -11 7.34 -11 7 C-9.88625 6.690625 -8.7725 6.38125 -7.625 6.0625 C-4.2054845 5.17673517 -4.2054845 5.17673517 -2 4 C-2 4.66 -2 5.32 -2 6 C-1.67 5.67 -1.34 5.34 -1 5 C-1.40929986 2.94603274 -1.40929986 2.94603274 -2 1 C-1.34 0.67 -0.68 0.34 0 0 Z " fill="#D3CDCE" transform="translate(186,93)"/>
<path d="M0 0 C0.99 0 1.98 0 3 0 C2.125 4.75 2.125 4.75 1 7 C1.50789063 6.72285156 2.01578125 6.44570312 2.5390625 6.16015625 C6.7077298 3.9665317 10.24131553 2.47586845 15 2 C15.33 2.66 15.66 3.32 16 4 C14.9275 4.4125 13.855 4.825 12.75 5.25 C9.47734926 6.63739149 7.34482838 8.27999908 5 11 C4.67 10.34 4.34 9.68 4 9 C2.02 9.66 0.04 10.32 -2 11 C-3.11450049 7.65649854 -2.91669067 6.33342063 -2 3 C-1.34 2.01 -0.68 1.02 0 0 Z " fill="#34182B" transform="translate(107,100)"/>
<path d="M0 0 C2.04650391 3.06975587 2.99704565 5.69084152 4.125 9.1875 C4.47820312 10.27417969 4.83140625 11.36085938 5.1953125 12.48046875 C5.46085938 13.31191406 5.72640625 14.14335938 6 15 C2.9409326 15.84653438 1.00906864 16.24513185 -2 15 C-2.33 14.01 -2.66 13.02 -3 12 C-2.67 11.67 -2.34 11.34 -2 11 C-2.99 10.34 -3.98 9.68 -5 9 C-3.68 8.34 -2.36 7.68 -1 7 C-1.33 6.01 -1.66 5.02 -2 4 C-1.34 4 -0.68 4 0 4 C0 2.68 0 1.36 0 0 Z " fill="#D2CFD0" transform="translate(174,49)"/>
<path d="M0 0 C0.99 0 1.98 0 3 0 C4.6875 2.5 4.6875 2.5 6 6 C5.36768053 8.94028554 4.28250542 11.24498836 3 14 C2.01 13.67 1.02 13.34 0 13 C0 11.02 0 9.04 0 7 C-2.31 7 -4.62 7 -7 7 C-7 6.34 -7 5.68 -7 5 C-4.69 5 -2.38 5 0 5 C0 3.35 0 1.7 0 0 Z " fill="#32122B" transform="translate(112,75)"/>
<path d="M0 0 C0.66 0 1.32 0 2 0 C2 0.66 2 1.32 2 2 C2.66 2 3.32 2 4 2 C4.33 2.66 4.66 3.32 5 4 C5.99 4.33 6.98 4.66 8 5 C7.505 6.3921875 7.505 6.3921875 7 7.8125 C5.85032996 10.92029291 5.85032996 10.92029291 6 14 C6.66 13.67 7.32 13.34 8 13 C7.34 14.65 6.68 16.3 6 18 C5.34 18 4.68 18 4 18 C3.13475247 15.56592995 2.28257135 13.12856816 1.4375 10.6875 C1.0672168 9.65206055 1.0672168 9.65206055 0.68945312 8.59570312 C-1.11328125 3.33984375 -1.11328125 3.33984375 0 0 Z " fill="#2C111A" transform="translate(176,48)"/>
<path d="M0 0 C2.475 0.99 2.475 0.99 5 2 C4.67 4.64 4.34 7.28 4 10 C2.68 10 1.36 10 0 10 C0.33 10.99 0.66 11.98 1 13 C-0.98 13.66 -2.96 14.32 -5 15 C-1.92482916 4.44191344 -1.92482916 4.44191344 0 0 Z " fill="#D3CDD2" transform="translate(113,92)"/>
<path d="M0 0 C3.63 1.32 7.26 2.64 11 4 C10.67 5.65 10.34 7.3 10 9 C7.03 9.66 4.06 10.32 1 11 C0.67 7.37 0.34 3.74 0 0 Z " fill="#C02E66" transform="translate(133,112)"/>
<path d="M0 0 C4 0 4 0 6 1 C6.4140625 3.94140625 6.4140625 3.94140625 6.625 7.5625 C6.69976562 8.76003906 6.77453125 9.95757812 6.8515625 11.19140625 C6.90054688 12.11824219 6.94953125 13.04507813 7 14 C5.68 14.33 4.36 14.66 3 15 C3 14.34 3 13.68 3 13 C2.34 12.67 1.68 12.34 1 12 C0.60539977 9.67624308 0.27769908 7.3406065 0 5 C-0.309375 3.824375 -0.309375 3.824375 -0.625 2.625 C-0.74875 2.08875 -0.8725 1.5525 -1 1 C-0.67 0.67 -0.34 0.34 0 0 Z " fill="#350F1E" transform="translate(193,96)"/>
<path d="M0 0 C0.1954625 2.24932227 0.38108226 4.49950142 0.5625 6.75 C0.66691406 8.00296875 0.77132812 9.2559375 0.87890625 10.546875 C0.97876723 13.39452364 0.90584295 15.34286067 0 18 C-0.66 18 -1.32 18 -2 18 C-2.75489591 16.11426401 -3.47806538 14.21580517 -4.1875 12.3125 C-4.59355469 11.25675781 -4.99960938 10.20101562 -5.41796875 9.11328125 C-6 6 -6 6 -4.73828125 3.16796875 C-2.1981982 0 -2.1981982 0 0 0 Z " fill="#310F1B" transform="translate(191,72)"/>
<path d="M0 0 C0.66 0.33 1.32 0.66 2 1 C1.43742692 4.37543847 0.52058432 6.95883135 -1 10 C-1 10.99 -1 11.98 -1 13 C-1 15 -1 17 -1 19 C-1.99 19 -2.98 19 -4 19 C-4.66 20.98 -5.32 22.96 -6 25 C-6.66 24.01 -7.32 23.02 -8 22 C-7.49267578 19.63989258 -7.49267578 19.63989258 -6.4453125 16.89453125 C-6.07792969 15.91162109 -5.71054688 14.92871094 -5.33203125 13.91601562 C-4.93371094 12.89185547 -4.53539063 11.86769531 -4.125 10.8125 C-3.73441406 9.77673828 -3.34382813 8.74097656 -2.94140625 7.67382812 C-1.97297433 5.11102659 -0.99213843 2.5536973 0 0 Z " fill="#D0CACF" transform="translate(130,46)"/>
<path d="M0 0 C0.66 0.66 1.32 1.32 2 2 C1.67 2.99 1.34 3.98 1 5 C1.66 5 2.32 5 3 5 C3 5.66 3 6.32 3 7 C2.34 7 1.68 7 1 7 C1.33 8.65 1.66 10.3 2 12 C-1.75 13.125 -1.75 13.125 -4 12 C-4.33 12.66 -4.66 13.32 -5 14 C-5 12.68 -5 11.36 -5 10 C-4.01 9.67 -3.02 9.34 -2 9 C-2.226875 8.443125 -2.45375 7.88625 -2.6875 7.3125 C-3.12449065 4.07876916 -1.81198627 2.60926022 0 0 Z " fill="#C23295" transform="translate(159,117)"/>
<path d="M0 0 C1.62418745 -0.08090971 3.24951745 -0.13914995 4.875 -0.1875 C5.77992188 -0.22230469 6.68484375 -0.25710937 7.6171875 -0.29296875 C8.79667969 -0.14794922 8.79667969 -0.14794922 10 0 C10.66 0.99 11.32 1.98 12 3 C11.360625 3.598125 10.72125 4.19625 10.0625 4.8125 C7.79689611 6.90810337 7.79689611 6.90810337 7 10 C6.01 9.67 5.02 9.34 4 9 C4 8.01 4 7.02 4 6 C4.66 6 5.32 6 6 6 C5.67 4.68 5.34 3.36 5 2 C3.35 1.67 1.7 1.34 0 1 C0 0.67 0 0.34 0 0 Z " fill="#2D0918" transform="translate(165,100)"/>
<path d="M0 0 C3.01727584 1.50863792 3.17535143 3.68315363 4.25 6.8125 C4.62640625 7.87082031 5.0028125 8.92914063 5.390625 10.01953125 C6 13 6 13 5.109375 15.38671875 C4.56023437 16.18529297 4.56023437 16.18529297 4 17 C2 17 2 17 -1 16 C-0.01 15.67 0.98 15.34 2 15 C2 13.35 2 11.7 2 10 C1.34 10 0.68 10 0 10 C0 6.7 0 3.4 0 0 Z " fill="#361C25" transform="translate(153,63)"/>
<path d="M0 0 C0.99 0.33 1.98 0.66 3 1 C2.67 1.66 2.34 2.32 2 3 C-0.0625 3.625 -0.0625 3.625 -2 4 C-2.33 5.65 -2.66 7.3 -3 9 C-3.66 9 -4.32 9 -5 9 C-5.33 11.31 -5.66 13.62 -6 16 C-6.99 15.67 -7.98 15.34 -9 15 C-8.29827148 8.55555438 -6.80782886 5.02453415 -1.75390625 0.8984375 C-1.17511719 0.60195312 -0.59632813 0.30546875 0 0 Z " fill="#3C0B27" transform="translate(163,129)"/>
<path d="M0 0 C5.625 -0.25 5.625 -0.25 9 2 C9.29296875 4.3828125 9.29296875 4.3828125 9.1875 7.125 C9.16042969 8.03507813 9.13335937 8.94515625 9.10546875 9.8828125 C9.07066406 10.58148438 9.03585938 11.28015625 9 12 C8.67 12 8.34 12 8 12 C8 9.36 8 6.72 8 4 C7.01 4 6.02 4 5 4 C5 3.34 5 2.68 5 2 C3.02 2.33 1.04 2.66 -1 3 C-1.33 3.99 -1.66 4.98 -2 6 C-2.99 5.67 -3.98 5.34 -5 5 C-5.6875 2.9375 -5.6875 2.9375 -6 1 C-5.01 1.495 -5.01 1.495 -4 2 C-4 2.66 -4 3.32 -4 4 C-3.34 4 -2.68 4 -2 4 C-1.34 2.68 -0.68 1.36 0 0 Z " fill="#4E0F2E" transform="translate(139,124)"/>
<path d="M0 0 C0.33 0.66 0.66 1.32 1 2 C-0.98 2.99 -0.98 2.99 -3 4 C-3 4.33 -3 4.66 -3 5 C-5.39591038 5.02712351 -7.79150957 5.0468982 -10.1875 5.0625 C-10.86103516 5.07087891 -11.53457031 5.07925781 -12.22851562 5.08789062 C-15.95434131 5.10606538 -19.3788042 4.89299392 -23 4 C-23 3.67 -23 3.34 -23 3 C-21.38931641 2.92652344 -21.38931641 2.92652344 -19.74609375 2.8515625 C-18.30987358 2.77646602 -16.87367681 2.70092124 -15.4375 2.625 C-14.73302734 2.5940625 -14.02855469 2.563125 -13.30273438 2.53125 C-8.58704259 2.27047442 -4.49614504 1.45341877 0 0 Z " fill="#AC3987" transform="translate(167,112)"/>
<path d="M0 0 C2.97851562 0.390625 2.97851562 0.390625 5.95703125 0.78125 C8.15471706 1.053233 8.15471706 1.053233 11 1 C12.68236471 1.62599617 14.3523962 2.28752268 16 3 C15.38125 3.144375 14.7625 3.28875 14.125 3.4375 C10.64224101 4.35940679 10.10104083 4.84843875 8 8 C6 7 6 7 5 4 C3.35857037 2.9590934 1.69287785 1.95495674 0 1 C0 0.67 0 0.34 0 0 Z " fill="#37132B" transform="translate(128,100)"/>
<path d="M0 0 C0.99 0.33 1.98 0.66 3 1 C2.87431641 2.57201172 2.87431641 2.57201172 2.74609375 4.17578125 C2.64291206 5.55466381 2.54006494 6.93357143 2.4375 8.3125 C2.38142578 9.00279297 2.32535156 9.69308594 2.26757812 10.40429688 C2.03418495 13.62512274 1.96775782 15.90327345 3 19 C2.5625 21.1875 2.5625 21.1875 2 23 C1.34 23 0.68 23 0 23 C0 15.41 0 7.82 0 0 Z " fill="#2F1023" transform="translate(73,56)"/>
<path d="M0 0 C3 3.6171875 3 3.6171875 3 7.0625 C2 10 2 10 -0.5625 11.875 C-1.7690625 12.431875 -1.7690625 12.431875 -3 13 C-4 11 -4 11 -3.22265625 8.3984375 C-2.83980469 7.40070313 -2.45695312 6.40296875 -2.0625 5.375 C-1.68222656 4.37210937 -1.30195312 3.36921875 -0.91015625 2.3359375 C-0.60980469 1.56507812 -0.30945313 0.79421875 0 0 Z " fill="#CBC4CA" transform="translate(121,70)"/>
<path d="M0 0 C0.33 0 0.66 0 1 0 C1.06058594 0.68707031 1.12117187 1.37414062 1.18359375 2.08203125 C1.26738281 2.98308594 1.35117188 3.88414062 1.4375 4.8125 C1.51871094 5.70582031 1.59992188 6.59914062 1.68359375 7.51953125 C1.93489767 10.12743559 1.93489767 10.12743559 3 13 C3.99 13 4.98 13 6 13 C6.33 11.68 6.66 10.36 7 9 C8.53445094 12.06890187 7.54984289 14.70094266 7 18 C4.49303771 17.04908327 3.05598755 16.06198622 1.25 14.0625 C-0.63654688 9.44046014 -0.23305871 4.92876009 0 0 Z " fill="#A83B6E" transform="translate(148,126)"/>
<path d="M0 0 C0.33 0.99 0.66 1.98 1 3 C3.01508358 3.73323796 3.01508358 3.73323796 5 4 C5 5.32 5 6.64 5 8 C1.37 7.34 -2.26 6.68 -6 6 C-5.34 5.01 -4.68 4.02 -4 3 C-2.68 3 -1.36 3 0 3 C0 2.01 0 1.02 0 0 Z " fill="#AC3569" transform="translate(143,118)"/>
<path d="M0 0 C-0.33 2.64 -0.66 5.28 -1 8 C-2.98 7.34 -4.96 6.68 -7 6 C-5.96849913 3.42124782 -5.35028898 2.21229635 -2.9375 0.75 C-1 0 -1 0 0 0 Z " fill="#CB34C0" transform="translate(171,114)"/>
<path d="M0 0 C1.9375 0.6875 1.9375 0.6875 4 2 C4.75 4.625 4.75 4.625 5 7 C3.02 7.33 1.04 7.66 -1 8 C-1.33 7.01 -1.66 6.02 -2 5 C-1.67 4.34 -1.34 3.68 -1 3 C-1.66 2.67 -2.32 2.34 -3 2 C-2.01 2 -1.02 2 0 2 C0 1.34 0 0.68 0 0 Z " fill="#320A16" transform="translate(189,104)"/>
<path d="M0 0 C2.44839588 3.67259383 4 6.54648201 4 11 C0.125 9.25 0.125 9.25 -1 7 C-1.66 7 -2.32 7 -3 7 C-3 6.34 -3 5.68 -3 5 C-2.34 5 -1.68 5 -1 5 C-1.33 4.01 -1.66 3.02 -2 2 C-1.34 1.34 -0.68 0.68 0 0 Z " fill="#CCC4C5" transform="translate(170,38)"/>
<path d="M0 0 C0.05399736 1.45792884 0.09279177 2.91642712 0.125 4.375 C0.14820313 5.18710938 0.17140625 5.99921875 0.1953125 6.8359375 C0 9 0 9 -2 11 C-2 8.69 -2 6.38 -2 4 C-2.99 4.495 -2.99 4.495 -4 5 C-5.99960012 5.039992 -8.00047242 5.04346799 -10 5 C-7 3 -7 3 -4 3 C-4 2.34 -4 1.68 -4 1 C-2 0 -2 0 0 0 Z " fill="#B644AC" transform="translate(172,111)"/>
<path d="M0 0 C0.66 0 1.32 0 2 0 C2 0.66 2 1.32 2 2 C6.29 2.99 10.58 3.98 15 5 C12 7 12 7 8.625 6.8125 C5.09824339 6.02202007 2.82912656 5.2290088 0 3 C0 2.01 0 1.02 0 0 Z " fill="#9B3963" transform="translate(132,109)"/>
<path d="M0 0 C0.99 0 1.98 0 3 0 C2.125 4.75 2.125 4.75 1 7 C1.66 7.33 2.32 7.66 3 8 C0.03 7.505 0.03 7.505 -3 7 C-2.38722388 4.03824877 -1.74627478 2.61941217 0 0 Z " fill="#2F112A" transform="translate(107,100)"/>
<path d="M0 0 C2.18975773 3.28463659 2.99806563 6.20696275 4 10 C2.35 9.67 0.7 9.34 -1 9 C-1.33 7.35 -1.66 5.7 -2 4 C-1.34 4 -0.68 4 0 4 C0 2.68 0 1.36 0 0 Z " fill="#CAC5C6" transform="translate(174,49)"/>
<path d="M0 0 C0.33 0 0.66 0 1 0 C2 7.625 2 7.625 2 11 C1.34 11.66 0.68 12.32 0 13 C-1.6435979 9.51943975 -2.29703854 7.65529044 -1 4 C-0.814375 3.2575 -0.62875 2.515 -0.4375 1.75 C-0.293125 1.1725 -0.14875 0.595 0 0 Z " fill="#2D0E22" transform="translate(146,128)"/>
<path d="M0 0 C0.66 0.33 1.32 0.66 2 1 C1.32200284 3.71198863 0.62068868 5.51840541 -1.62109375 7.2578125 C-3.5 8.375 -3.5 8.375 -7 10 C-7.66 9.67 -8.32 9.34 -9 9 C-5.375 6 -5.375 6 -2 6 C-1.855625 5.38125 -1.71125 4.7625 -1.5625 4.125 C-1 2 -1 2 0 0 Z " fill="#A83F8C" transform="translate(168,121)"/>
<path d="M0 0 C1 3 1 3 0.0625 5.1875 C-0.4634375 6.0846875 -0.4634375 6.0846875 -1 7 C-0.34 7 0.32 7 1 7 C0.34 8.32 -0.32 9.64 -1 11 C-1.99 10.67 -2.98 10.34 -4 10 C-3.52449439 8.51965236 -3.04448784 7.04074979 -2.5625 5.5625 C-2.29566406 4.73878906 -2.02882812 3.91507812 -1.75390625 3.06640625 C-1 1 -1 1 0 0 Z " fill="#372028" transform="translate(150,63)"/>
<path d="M0 0 C0.33 0.66 0.66 1.32 1 2 C1.66 2.33 2.32 2.66 3 3 C3 3.99 3 4.98 3 6 C-0.63 5.34 -4.26 4.68 -8 4 C-8 3.67 -8 3.34 -8 3 C-6.865625 2.690625 -5.73125 2.38125 -4.5625 2.0625 C-1.21224901 1.37075469 -1.21224901 1.37075469 0 0 Z " fill="#CCC1C3" transform="translate(183,97)"/>
<path d="M0 0 C0.99 0.33 1.98 0.66 3 1 C2.51171875 7.0546875 2.51171875 7.0546875 2 9 C1.01 9.66 0.02 10.32 -1 11 C-0.67 7.37 -0.34 3.74 0 0 Z " fill="#490B3C" transform="translate(172,111)"/>
<path d="M0 0 C0.66 0.33 1.32 0.66 2 1 C1.44271087 4.34373475 0.64826111 7.03312999 -1 10 C-1.66 10 -2.32 10 -3 10 C-2.01 6.7 -1.02 3.4 0 0 Z " fill="#C9C5C6" transform="translate(130,46)"/>
<path d="M0 0 C1.5625 1.25 1.5625 1.25 3 3 C2.6875 5.1875 2.6875 5.1875 2 7 C0.68 7 -0.64 7 -2 7 C-1.125 1.125 -1.125 1.125 0 0 Z " fill="#361B30" transform="translate(115,77)"/>
<path d="M0 0 C0.33 0.66 0.66 1.32 1 2 C1.66 2 2.32 2 3 2 C3.33 2.99 3.66 3.98 4 5 C2.02 5.66 0.04 6.32 -2 7 C-1.34 4.69 -0.68 2.38 0 0 Z " fill="#C8AFC4" transform="translate(110,100)"/>
<path d="M0 0 C2.3773161 2.3773161 2.67028521 3.70285207 3 7 C2.34 7.66 1.68 8.32 1 9 C-1.09230769 4.56923077 -1.09230769 4.56923077 -0.625 1.6875 C-0.41875 1.130625 -0.2125 0.57375 0 0 Z " fill="#CFC4C8" transform="translate(187,85)"/>
<path d="M0 0 C1.98 0 3.96 0 6 0 C5.67 0.99 5.34 1.98 5 3 C3.02 3.33 1.04 3.66 -1 4 C-1.33 3.34 -1.66 2.68 -2 2 C-1.34 2 -0.68 2 0 2 C0 1.34 0 0.68 0 0 Z " fill="#26151D" transform="translate(48,138)"/>
<path d="M0 0 C1.98 0.99 1.98 0.99 4 2 C3.01 2.495 3.01 2.495 2 3 C2 5.64 2 8.28 2 11 C1.67 11 1.34 11 1 11 C0.67 7.37 0.34 3.74 0 0 Z " fill="#B9305E" transform="translate(133,112)"/>
<path d="M0 0 C2.64 0.33 5.28 0.66 8 1 C8 1.99 8 2.98 8 4 C5.125 3.6875 5.125 3.6875 2 3 C1.34 2.01 0.68 1.02 0 0 Z " fill="#412337" transform="translate(128,100)"/>
<path d="M0 0 C2.31 0 4.62 0 7 0 C7 0.66 7 1.32 7 2 C5.02 2.66 3.04 3.32 1 4 C0.67 2.68 0.34 1.36 0 0 Z " fill="#3A1D36" transform="translate(104,107)"/>
<path d="M0 0 C2 3 2 3 1.625 6.1875 C1.41875 7.115625 1.2125 8.04375 1 9 C0.67 8.01 0.34 7.02 0 6 C-0.66 6 -1.32 6 -2 6 C-1.34 4.02 -0.68 2.04 0 0 Z " fill="#C6C1C1" transform="translate(134,36)"/>
</svg>
