<svg version="1.1" id="Layer_1" xmlns="http://www.w3.org/2000/svg" xmlns:xlink="http://www.w3.org/1999/xlink" x="0px" y="0px"
	 width="100%" viewBox="0 0 292 173" enable-background="new 0 0 292 173" xml:space="preserve">
<path fill="#FEFEFE" opacity="1.000000" stroke="none" 
	d="
M188.000000,174.000000 
	C125.333344,174.000000 63.166683,174.000000 1.000017,174.000000 
	C1.000011,116.333351 1.000011,58.666695 1.000006,1.000032 
	C98.333305,1.000021 195.666611,1.000021 292.999939,1.000011 
	C292.999939,58.666637 292.999939,116.333275 292.999969,173.999954 
	C258.166656,174.000000 223.333328,174.000000 188.000000,174.000000 
M201.429230,120.376297 
	C198.966736,119.426682 198.020432,120.500778 198.022141,122.900146 
	C198.029129,132.724579 197.965225,142.549606 198.062164,152.373093 
	C198.091843,155.379959 199.441574,156.238235 202.090866,153.504898 
	C202.055557,153.337875 202.020248,153.170853 202.193878,152.086044 
	C202.119980,142.055298 202.046082,132.024536 202.050690,121.486229 
	C201.956284,121.343422 201.861862,121.200615 201.429230,120.376297 
M124.220276,120.254967 
	C123.906181,120.633232 123.321251,121.008820 123.317474,121.390152 
	C123.214203,131.820312 123.115372,142.251602 123.218842,152.680664 
	C123.227272,153.529358 124.686378,154.363678 125.471397,155.204666 
	C126.095230,154.232849 127.142876,153.311920 127.266808,152.280060 
	C127.715111,148.547836 127.852974,144.778336 129.014282,141.125992 
	C131.321335,141.132706 133.629059,141.178574 135.935287,141.138351 
	C141.572662,141.040039 144.757568,138.735855 145.798386,134.060745 
	C147.153732,127.972794 145.213211,123.590736 139.566650,120.647896 
	C139.040695,120.542793 138.514740,120.437691 137.093216,120.087334 
	C133.064880,120.115326 129.036545,120.143311 124.220276,120.254967 
M88.885628,121.509193 
	C88.892845,121.686501 88.900070,121.863815 88.646767,122.943352 
	C88.718483,129.940720 88.790199,136.938095 88.754944,144.500427 
	C88.793404,144.688217 88.831856,144.875992 88.575523,145.692322 
	C86.363426,147.595963 84.420654,150.461426 81.875107,151.174210 
	C78.203217,152.202393 75.966133,149.132599 74.575073,144.996078 
	C74.371986,137.003143 74.168907,129.010193 73.753616,120.376450 
	C72.863983,120.597008 71.974358,120.817566 70.721939,121.910286 
	C70.740417,129.665375 70.758888,137.420471 70.615334,145.942825 
	C71.873421,152.144974 76.111542,155.775986 81.860085,155.576767 
	C87.408531,155.384476 92.353729,151.693100 92.657417,146.477097 
	C93.118286,138.561386 92.946831,130.599701 92.782196,122.662964 
	C92.739059,120.583389 91.794968,118.374374 88.885628,121.509193 
M229.753464,155.252075 
	C234.062439,155.180679 238.377930,155.213547 242.674500,154.944275 
	C243.472443,154.894287 244.194183,153.628021 244.951096,152.923096 
	C244.132324,152.367630 243.336929,151.378433 242.490677,151.332840 
	C239.080948,151.149048 235.655533,151.256699 232.221771,151.256699 
	C232.221771,146.558899 232.221771,142.504776 232.221771,138.094116 
	C234.804779,138.094116 237.120728,138.285049 239.379440,138.008499 
	C240.411758,137.882111 241.331284,136.834579 242.301971,136.204803 
	C241.273041,135.469406 240.314377,134.264267 239.200363,134.097656 
	C236.969772,133.764023 234.654190,133.998611 232.184662,133.998611 
	C232.184662,130.502441 232.184662,127.457596 232.184662,124.004311 
	C236.050873,124.004311 239.673843,124.114685 243.281540,123.928864 
	C244.215591,123.880753 245.101837,122.904716 246.010040,122.354927 
	C245.521988,121.602043 245.014511,120.184151 244.548859,120.197754 
	C239.079483,120.357574 233.616348,120.732094 227.906830,121.499802 
	C227.932861,121.668503 227.958878,121.837204 227.765564,122.920441 
	C227.852371,133.283401 227.939178,143.646378 228.041550,154.572205 
	C228.363312,154.698135 228.685089,154.824066 229.753464,155.252075 
M194.108521,121.479050 
	C194.000336,121.337624 193.892151,121.196190 193.452011,120.373749 
	C189.730835,119.129700 190.129196,121.818016 190.115204,123.954491 
	C190.072800,130.433975 190.138504,136.914230 190.086426,143.393570 
	C190.046921,148.306992 187.376343,151.457031 183.315002,151.554352 
	C179.084152,151.655716 176.176865,148.358154 176.131271,143.226105 
	C176.072235,136.580719 176.211426,129.931656 176.020660,123.291206 
	C175.988327,122.165718 174.726059,121.075569 174.032028,119.969093 
	C173.351196,121.097404 172.108932,122.211929 172.080826,123.356262 
	C171.901505,130.662354 171.856186,137.978180 172.031784,145.284439 
	C172.170227,151.045349 176.899338,155.338272 182.831406,155.501785 
	C188.920135,155.669617 194.084732,151.367035 194.229889,145.397934 
	C194.419327,137.607483 194.121796,129.805191 194.108521,121.479050 
M100.656693,151.527267 
	C100.578720,148.921417 100.500748,146.315567 100.664948,143.061432 
	C103.069107,140.333786 106.179520,140.287125 107.995354,143.143219 
	C110.134796,146.508301 111.909546,150.112289 114.159729,153.395203 
	C114.761032,154.272491 116.520447,154.355988 117.748177,154.803925 
	C117.739159,153.615173 118.129547,152.224411 117.648956,151.274170 
	C115.961098,147.936844 113.973625,144.751068 112.101501,141.510574 
	C118.718460,137.918732 120.761139,133.406281 118.983414,126.950447 
	C117.666313,122.167397 114.564575,120.663094 106.253830,121.025276 
	C105.500648,121.063263 104.747475,121.101250 103.145622,120.976562 
	C101.420662,121.020691 99.695694,121.064827 97.355316,121.093262 
	C97.179451,121.418350 97.003586,121.743439 96.598907,122.974648 
	C96.718147,133.313126 96.837387,143.651596 97.219666,154.696732 
	C98.233292,154.439301 99.246918,154.181870 100.616928,153.441406 
	C100.555618,153.055191 100.494301,152.668961 100.656693,151.527267 
M147.427216,12.005559 
	C147.427216,44.602795 147.427216,77.200035 147.427216,110.255318 
	C149.551773,109.810196 150.820023,109.544487 152.447403,109.464005 
	C152.740753,109.451294 152.969513,109.323135 153.961823,109.074600 
	C170.908600,106.065475 187.855362,103.056358 204.670837,100.070549 
	C204.670837,72.961777 204.670837,46.452663 204.670837,19.590921 
	C185.961716,16.298189 167.502304,13.049403 148.643677,9.471101 
	C148.299423,10.015084 147.955154,10.559067 147.427216,12.005559 
M144.886856,107.054535 
	C144.842178,75.043724 144.797501,43.032917 144.931244,10.532904 
	C144.280548,10.334288 143.629837,10.135672 142.147079,9.900953 
	C124.407463,13.179315 106.667847,16.457676 88.267487,19.853331 
	C88.141647,20.248329 88.015800,20.643326 87.660057,21.946899 
	C87.647049,32.554230 87.589661,43.161732 87.631668,53.768845 
	C87.691360,68.839012 87.824165,83.908890 87.916092,99.601372 
	C88.277451,99.734444 88.638809,99.867516 89.731323,100.312172 
	C106.473114,103.254616 123.214905,106.197060 140.589981,109.520065 
	C141.986771,109.054474 144.744919,112.234726 144.886856,107.054535 
M64.359703,134.810654 
	C69.193604,126.185112 65.711769,120.010399 56.009327,120.002922 
	C54.018593,120.001389 52.013786,120.153252 50.040306,119.968750 
	C46.806545,119.666435 45.616871,120.915443 45.716698,124.204262 
	C45.912903,130.668182 45.773605,137.142288 45.773506,143.612167 
	C45.773323,155.843872 45.773441,155.843887 58.033039,155.205414 
	C63.730953,154.908676 68.028938,151.077820 67.653450,145.383026 
	C67.431526,142.017181 65.293869,138.777664 64.359703,134.810654 
M147.953171,131.395569 
	C149.565460,133.020264 151.007599,134.875992 152.828751,136.217041 
	C155.769730,138.382660 159.113495,140.014191 161.979080,142.263748 
	C163.365051,143.351776 165.126099,145.627838 164.793365,146.836288 
	C164.331635,148.513275 162.257187,150.446655 160.515564,150.901794 
	C158.081955,151.537766 155.311310,150.999847 152.698944,150.789444 
	C151.298233,150.676636 149.926956,150.198029 147.229660,149.587234 
	C148.307220,151.801727 148.754883,153.807419 149.399948,153.873032 
	C153.942322,154.335220 158.722031,155.251846 163.019928,154.261414 
	C165.510742,153.687408 168.623871,150.005951 168.935410,147.419205 
	C169.245911,144.841064 166.973297,141.283691 164.809753,139.238205 
	C161.844406,136.434662 157.749863,134.863770 154.476273,132.329315 
	C153.146301,131.299637 151.788757,128.917114 152.105820,127.530067 
	C152.438095,126.076439 154.708176,124.171455 156.231155,124.077202 
	C159.085068,123.900589 161.998459,124.998718 164.914062,125.327995 
	C165.873520,125.436356 166.981354,124.923180 167.867996,124.422630 
	C168.053940,124.317665 167.789062,122.835304 167.350159,122.301643 
	C165.353043,119.873299 156.918457,118.933029 153.055344,120.653488 
	C148.686142,122.599335 146.762558,125.888184 147.953171,131.395569 
M207.754913,123.974091 
	C209.355408,124.047829 210.955917,124.121567 212.895248,124.210922 
	C212.895248,133.664932 212.827377,142.776611 212.983887,151.884445 
	C213.002777,152.983612 214.235031,154.061951 214.904907,155.149948 
	C215.628159,154.088379 216.644714,153.114105 216.993790,151.941177 
	C217.357330,150.719696 217.077576,149.306519 217.077621,147.977158 
	C217.077911,140.053879 217.077744,132.130600 217.077744,123.974060 
	C219.182144,123.974060 220.737961,124.251297 222.131348,123.894363 
	C223.465759,123.552544 224.631439,122.552063 225.871277,121.841072 
	C224.704254,121.223190 223.555908,120.117447 222.366959,120.071915 
	C217.223251,119.874908 212.063980,119.887665 206.919601,120.076141 
	C205.938629,120.112076 204.999390,121.287331 204.040894,121.936943 
	C204.983612,122.614433 205.926315,123.291924 207.754913,123.974091 
z"/>
<path fill="#404041" opacity="1.000000" stroke="none" 
	d="
M139.956696,109.139511 
	C123.214905,106.197060 106.473114,103.254616 89.252838,99.924881 
	C88.491486,99.351357 88.208603,99.165131 87.925728,98.978897 
	C87.824165,83.908890 87.691360,68.839012 87.631668,53.768845 
	C87.589661,43.161732 87.647049,32.554230 88.034348,21.356636 
	C88.581841,20.422926 88.755035,20.079481 88.928230,19.736034 
	C106.667847,16.457676 124.407463,13.179315 142.705353,10.155378 
	C143.760010,10.613906 144.256424,10.818007 144.752823,11.022108 
	C144.797501,43.032917 144.842178,75.043724 144.509598,107.552917 
	C142.740463,108.414040 141.348572,108.776772 139.956696,109.139511 
z"/>
<path fill="#FF6735" opacity="1.000000" stroke="none" 
	d="
M149.042892,9.800617 
	C167.502304,13.049403 185.961716,16.298189 204.670837,19.590921 
	C204.670837,46.452663 204.670837,72.961777 204.670837,100.070549 
	C187.855362,103.056358 170.908600,106.065475 153.364563,109.041534 
	C152.507111,109.013603 152.280777,109.103699 152.088272,109.278778 
	C150.820023,109.544487 149.551773,109.810196 147.427216,110.255318 
	C147.427216,77.200035 147.427216,44.602795 147.750534,11.460230 
	C148.396866,10.543474 148.719879,10.172046 149.042892,9.800617 
M179.763367,35.595631 
	C179.787827,32.432781 179.672256,29.261002 179.873199,26.109404 
	C180.109238,22.407230 178.462448,21.447538 174.946182,22.273144 
	C174.872833,23.702328 174.631271,25.026285 174.768997,26.309534 
	C175.367645,31.887234 173.306931,35.965370 168.983124,39.661152 
	C164.138428,43.802166 160.035110,48.810539 155.609192,53.441505 
	C155.778030,53.876476 155.946854,54.311451 156.115677,54.746426 
	C162.170944,54.746426 168.226212,54.746426 174.805237,54.746426 
	C174.805237,59.953758 174.805237,64.349442 174.805237,68.923210 
	C179.236252,68.923210 183.118805,68.923210 187.846252,68.923210 
	C181.394241,77.439171 170.539719,83.323189 175.580704,96.157150 
	C178.657288,96.757462 180.394073,95.494507 179.814011,91.925926 
	C178.923447,86.447052 181.125595,82.345062 185.021561,78.724174 
	C187.697388,76.237259 190.031830,73.386002 192.567673,70.744461 
	C194.522202,68.708450 196.552628,66.745308 199.171097,64.128349 
	C192.001038,64.128349 186.094849,64.128349 179.717926,64.128349 
	C179.717926,59.721233 179.717926,55.622799 179.717926,50.805660 
	C176.637711,50.805660 174.018478,50.918205 171.417404,50.750153 
	C170.379898,50.683117 168.623886,50.123768 168.529816,49.564121 
	C168.351822,48.505390 168.821396,46.983536 169.580063,46.183216 
	C172.782181,42.805267 176.189911,39.622242 179.763367,35.595631 
z"/>
<path fill="#EB6336" opacity="1.000000" stroke="none" 
	d="
M64.188705,135.145996 
	C65.293869,138.777664 67.431526,142.017181 67.653450,145.383026 
	C68.028938,151.077820 63.730953,154.908676 58.033039,155.205414 
	C45.773441,155.843887 45.773323,155.843872 45.773506,143.612167 
	C45.773605,137.142288 45.912903,130.668182 45.716698,124.204262 
	C45.616871,120.915443 46.806545,119.666435 50.040306,119.968750 
	C52.013786,120.153252 54.018593,120.001389 56.009327,120.002922 
	C65.711769,120.010399 69.193604,126.185112 64.188705,135.145996 
M52.560440,137.805191 
	C51.719131,138.331863 50.180710,138.819855 50.148994,139.391449 
	C49.933777,143.269928 50.036514,147.166077 50.036514,151.281845 
	C53.037434,151.281845 55.343872,151.263351 57.649899,151.286270 
	C60.969307,151.319244 63.489685,149.585724 63.460407,146.486145 
	C63.435368,143.835419 62.381565,140.543137 60.571590,138.773285 
	C59.203629,137.435654 55.924801,138.052185 52.560440,137.805191 
M59.873749,124.212486 
	C56.655609,124.212486 53.437473,124.212486 50.469734,124.212486 
	C50.469734,128.043365 50.469734,131.374710 50.469734,135.061417 
	C52.762623,134.571869 54.471973,134.062622 56.216911,133.860275 
	C62.548668,133.126053 63.920280,130.325592 59.873749,124.212486 
z"/>
<path fill="#EB6639" opacity="1.000000" stroke="none" 
	d="
M96.956619,153.990082 
	C96.837387,143.651596 96.718147,133.313126 96.954575,122.426056 
	C97.530411,121.621292 97.750572,121.365128 97.970734,121.108963 
	C99.695694,121.064827 101.420662,121.020691 103.416809,121.367752 
	C103.501305,122.415115 103.314613,123.071304 102.754105,123.845535 
	C101.653702,128.157318 100.927116,132.351074 100.201248,136.540710 
	C111.669647,138.002747 114.476929,137.026077 115.064049,131.953766 
	C115.670334,126.715858 113.781776,124.555344 107.843651,123.386711 
	C107.541191,122.408157 107.271278,121.773705 107.001358,121.139259 
	C114.564575,120.663094 117.666313,122.167397 118.983414,126.950447 
	C120.761139,133.406281 118.718460,137.918732 112.101501,141.510574 
	C113.973625,144.751068 115.961098,147.936844 117.648956,151.274170 
	C118.129547,152.224411 117.739159,153.615173 117.748184,154.803925 
	C116.520447,154.355988 114.761032,154.272491 114.159729,153.395203 
	C111.909546,150.112289 110.134796,146.508301 107.995354,143.143219 
	C106.179520,140.287125 103.069107,140.333786 100.194153,143.652313 
	C99.959900,146.923050 100.196449,149.602890 100.432991,152.282745 
	C100.494301,152.668961 100.555618,153.055191 100.024292,153.691986 
	C98.606644,153.958405 97.781631,153.974243 96.956619,153.990082 
z"/>
<path fill="#464647" opacity="1.000000" stroke="none" 
	d="
M147.845749,131.042450 
	C146.762558,125.888184 148.686142,122.599335 153.055344,120.653488 
	C156.918457,118.933029 165.353043,119.873299 167.350159,122.301643 
	C167.789062,122.835304 168.053940,124.317665 167.867996,124.422630 
	C166.981354,124.923180 165.873520,125.436356 164.914062,125.327995 
	C161.998459,124.998718 159.085068,123.900589 156.231155,124.077202 
	C154.708176,124.171455 152.438095,126.076439 152.105820,127.530067 
	C151.788757,128.917114 153.146301,131.299637 154.476273,132.329315 
	C157.749863,134.863770 161.844406,136.434662 164.809753,139.238205 
	C166.973297,141.283691 169.245911,144.841064 168.935410,147.419205 
	C168.623871,150.005951 165.510742,153.687408 163.019928,154.261414 
	C158.722031,155.251846 153.942322,154.335220 149.399948,153.873032 
	C148.754883,153.807419 148.307220,151.801727 147.229660,149.587234 
	C149.926956,150.198029 151.298233,150.676636 152.698944,150.789444 
	C155.311310,150.999847 158.081955,151.537766 160.515564,150.901794 
	C162.257187,150.446655 164.331635,148.513275 164.793365,146.836288 
	C165.126099,145.627838 163.365051,143.351776 161.979080,142.263748 
	C159.113495,140.014191 155.769730,138.382660 152.828751,136.217041 
	C151.007599,134.875992 149.565460,133.020264 147.845749,131.042450 
z"/>
<path fill="#464647" opacity="1.000000" stroke="none" 
	d="
M194.033783,122.007988 
	C194.121796,129.805191 194.419327,137.607483 194.229889,145.397934 
	C194.084732,151.367035 188.920135,155.669617 182.831406,155.501785 
	C176.899338,155.338272 172.170227,151.045349 172.031784,145.284439 
	C171.856186,137.978180 171.901505,130.662354 172.080826,123.356262 
	C172.108932,122.211929 173.351196,121.097404 174.032013,119.969101 
	C174.726059,121.075569 175.988327,122.165718 176.020660,123.291206 
	C176.211426,129.931656 176.072235,136.580719 176.131271,143.226105 
	C176.176865,148.358154 179.084152,151.655716 183.315002,151.554352 
	C187.376343,151.457031 190.046921,148.306992 190.086426,143.393570 
	C190.138504,136.914230 190.072800,130.433975 190.115204,123.954491 
	C190.129196,121.818016 189.730835,119.129700 193.484253,120.833282 
	C193.688919,121.531212 193.861343,121.769600 194.033783,122.007988 
z"/>
<path fill="#4F4F50" opacity="1.000000" stroke="none" 
	d="
M228.151581,121.049995 
	C233.616348,120.732094 239.079483,120.357574 244.548859,120.197754 
	C245.014511,120.184151 245.521988,121.602043 246.010040,122.354919 
	C245.101837,122.904716 244.215591,123.880753 243.281540,123.928864 
	C239.673843,124.114685 236.050873,124.004311 232.184662,124.004311 
	C232.184662,127.457596 232.184662,130.502441 232.184662,133.998611 
	C234.654190,133.998611 236.969772,133.764023 239.200363,134.097656 
	C240.314377,134.264267 241.273041,135.469406 242.301971,136.204803 
	C241.331284,136.834579 240.411758,137.882111 239.379440,138.008499 
	C237.120728,138.285049 234.804779,138.094116 232.221771,138.094116 
	C232.221771,142.504776 232.221771,146.558899 232.221771,151.256699 
	C235.655533,151.256699 239.080948,151.149048 242.490677,151.332840 
	C243.336929,151.378433 244.132324,152.367630 244.951080,152.923096 
	C244.194183,153.628021 243.472443,154.894287 242.674500,154.944275 
	C238.377930,155.213547 234.062439,155.180679 229.288742,154.877167 
	C228.639587,154.205917 228.373581,154.041595 228.026001,154.009338 
	C227.939178,143.646378 227.852371,133.283401 228.065033,122.409027 
	C228.456177,121.804604 228.639694,121.649567 228.625275,121.628242 
	C228.486404,121.422638 228.314240,121.239532 228.151581,121.049995 
z"/>
<path fill="#EC6B3F" opacity="1.000000" stroke="none" 
	d="
M74.513840,145.919693 
	C75.966133,149.132599 78.203217,152.202393 81.875107,151.174210 
	C84.420654,150.461426 86.363426,147.595963 88.914429,145.272614 
	C89.122864,144.547073 88.992386,144.241272 88.861916,143.935455 
	C88.790199,136.938095 88.718483,129.940720 88.957870,122.424149 
	C89.366150,121.823242 89.558907,121.695312 89.545296,121.667175 
	C89.441597,121.452721 89.297607,121.257751 89.166153,121.056717 
	C91.794968,118.374374 92.739059,120.583389 92.782196,122.662964 
	C92.946831,130.599701 93.118286,138.561386 92.657417,146.477097 
	C92.353729,151.693100 87.408531,155.384476 81.860085,155.576767 
	C76.111542,155.775986 71.873421,152.144974 71.037605,145.277435 
	C71.334824,136.754074 71.209770,128.896103 71.084724,121.038124 
	C71.974358,120.817566 72.863983,120.597008 73.554199,120.982010 
	C73.231705,128.971832 73.065170,136.356049 73.053864,143.740479 
	C73.052750,144.466141 74.004417,145.193253 74.513840,145.919693 
z"/>
<path fill="#EB6132" opacity="1.000000" stroke="none" 
	d="
M140.006393,120.981422 
	C145.213211,123.590736 147.153732,127.972794 145.798386,134.060745 
	C144.757568,138.735855 141.572662,141.040039 135.935287,141.138351 
	C133.629059,141.178574 131.321335,141.132706 128.193893,141.236465 
	C126.692383,145.175385 126.011269,149.003830 125.330147,152.832291 
	C125.222839,152.836365 125.115524,152.840439 125.008209,152.844513 
	C125.008209,141.953445 125.008209,131.062363 125.008209,120.171295 
	C129.036545,120.143311 133.064880,120.115326 137.591370,120.475754 
	C138.728485,120.903252 139.367432,120.942337 140.006393,120.981422 
M132.496674,137.155975 
	C135.601074,136.817291 139.761871,138.565933 141.042755,134.246017 
	C141.764404,131.812180 141.762299,127.152443 140.538055,126.527306 
	C136.756989,124.596565 132.232269,124.122177 127.454407,122.949142 
	C127.454407,128.548264 127.454407,132.595428 127.454407,136.876236 
	C129.000122,136.981354 130.285538,137.068756 132.496674,137.155975 
z"/>
<path fill="#434344" opacity="1.000000" stroke="none" 
	d="
M207.311981,123.971756 
	C205.926315,123.291924 204.983612,122.614433 204.040894,121.936935 
	C204.999390,121.287331 205.938629,120.112076 206.919601,120.076141 
	C212.063980,119.887665 217.223251,119.874908 222.366959,120.071915 
	C223.555908,120.117447 224.704254,121.223190 225.871277,121.841064 
	C224.631439,122.552063 223.465759,123.552544 222.131348,123.894363 
	C220.737961,124.251297 219.182144,123.974060 217.077744,123.974060 
	C217.077744,132.130600 217.077911,140.053879 217.077621,147.977158 
	C217.077576,149.306519 217.357330,150.719696 216.993790,151.941177 
	C216.644714,153.114105 215.628159,154.088379 214.904907,155.149948 
	C214.235031,154.061951 213.002777,152.983612 212.983887,151.884445 
	C212.827377,142.776611 212.895248,133.664932 212.895248,124.210922 
	C210.955917,124.121567 209.355408,124.047829 207.311981,123.971756 
z"/>
<path fill="#474748" opacity="1.000000" stroke="none" 
	d="
M201.972198,121.993782 
	C202.046082,132.024536 202.119980,142.055298 201.919998,152.621368 
	C201.570724,153.253479 201.412048,153.405411 201.433624,153.437988 
	C201.562424,153.632492 201.732773,153.799454 201.889191,153.975662 
	C199.441574,156.238235 198.091843,155.379959 198.062164,152.373093 
	C197.965225,142.549606 198.029129,132.724579 198.022141,122.900146 
	C198.020432,120.500778 198.966736,119.426682 201.465881,120.830444 
	C201.659088,121.520996 201.815643,121.757393 201.972198,121.993782 
z"/>
<path fill="#EB6639" opacity="1.000000" stroke="none" 
	d="
M124.614243,120.213135 
	C125.008209,131.062363 125.008209,141.953445 125.008209,152.844513 
	C125.115524,152.840439 125.222839,152.836365 125.330147,152.832291 
	C126.011269,149.003830 126.692383,145.175385 127.740761,141.184921 
	C127.852974,144.778336 127.715111,148.547836 127.266808,152.280060 
	C127.142876,153.311920 126.095230,154.232849 125.471397,155.204666 
	C124.686378,154.363678 123.227272,153.529358 123.218842,152.680664 
	C123.115372,142.251602 123.214203,131.820312 123.317474,121.390152 
	C123.321251,121.008820 123.906181,120.633232 124.614243,120.213135 
z"/>
<path fill="#E94F18" opacity="1.000000" stroke="none" 
	d="
M74.544456,145.457886 
	C74.004417,145.193253 73.052750,144.466141 73.053864,143.740479 
	C73.065170,136.356049 73.231705,128.971832 73.660301,121.302414 
	C74.168907,129.010193 74.371986,137.003143 74.544456,145.457886 
z"/>
<path fill="#E94F18" opacity="1.000000" stroke="none" 
	d="
M70.903336,121.474205 
	C71.209770,128.896103 71.334824,136.754074 71.118622,144.893799 
	C70.758888,137.420471 70.740417,129.665375 70.903336,121.474205 
z"/>
<path fill="#E9531E" opacity="1.000000" stroke="none" 
	d="
M100.544846,151.904999 
	C100.196449,149.602890 99.959900,146.923050 100.073067,143.976456 
	C100.500748,146.315567 100.578720,148.921417 100.544846,151.904999 
z"/>
<path fill="#4F4F50" opacity="1.000000" stroke="none" 
	d="
M140.273346,109.329788 
	C141.348572,108.776772 142.740463,108.414040 144.428818,108.013611 
	C144.744919,112.234726 141.986771,109.054474 140.273346,109.329788 
z"/>
<path fill="#E9531E" opacity="1.000000" stroke="none" 
	d="
M103.127930,123.727493 
	C103.314613,123.071304 103.501305,122.415115 103.841141,121.449089 
	C104.747475,121.101250 105.500648,121.063263 106.627594,121.082268 
	C107.271278,121.773705 107.541191,122.408157 107.450226,123.439850 
	C105.768867,123.800560 104.448402,123.764023 103.127930,123.727493 
z"/>
<path fill="#4F4F50" opacity="1.000000" stroke="none" 
	d="
M144.842041,10.777506 
	C144.256424,10.818007 143.760010,10.613906 143.121368,10.173429 
	C143.629837,10.135672 144.280548,10.334288 144.842041,10.777506 
z"/>
<path fill="#EB6639" opacity="1.000000" stroke="none" 
	d="
M139.786530,120.814659 
	C139.367432,120.942337 138.728485,120.903252 138.039154,120.598373 
	C138.514740,120.437691 139.040695,120.542793 139.786530,120.814659 
z"/>
<path fill="#FF845C" opacity="1.000000" stroke="none" 
	d="
M148.843292,9.635859 
	C148.719879,10.172046 148.396866,10.543474 147.842377,11.008976 
	C147.955154,10.559067 148.299423,10.015084 148.843292,9.635859 
z"/>
<path fill="#E9531E" opacity="1.000000" stroke="none" 
	d="
M97.088142,154.343414 
	C97.781631,153.974243 98.606644,153.958405 99.846100,153.933502 
	C99.246918,154.181870 98.233292,154.439301 97.088142,154.343414 
z"/>
<path fill="#343435" opacity="1.000000" stroke="none" 
	d="
M194.071152,121.743515 
	C193.861343,121.769600 193.688919,121.531212 193.650223,121.173798 
	C193.892151,121.196190 194.000336,121.337624 194.071152,121.743515 
z"/>
<path fill="#343435" opacity="1.000000" stroke="none" 
	d="
M202.011444,121.740005 
	C201.815643,121.757393 201.659088,121.520996 201.634995,121.171204 
	C201.861862,121.200615 201.956284,121.343422 202.011444,121.740005 
z"/>
<path fill="#29292A" opacity="1.000000" stroke="none" 
	d="
M228.029205,121.274902 
	C228.314240,121.239532 228.486404,121.422638 228.625275,121.628242 
	C228.639694,121.649567 228.456177,121.804604 228.174683,121.951752 
	C227.958878,121.837204 227.932861,121.668503 228.029205,121.274902 
z"/>
<path fill="#E9531E" opacity="1.000000" stroke="none" 
	d="
M97.663025,121.101112 
	C97.750572,121.365128 97.530411,121.621292 97.068985,121.972992 
	C97.003586,121.743439 97.179451,121.418350 97.663025,121.101112 
z"/>
<path fill="#E94F18" opacity="1.000000" stroke="none" 
	d="
M89.025894,121.282959 
	C89.297607,121.257751 89.441597,121.452721 89.545296,121.667175 
	C89.558907,121.695312 89.366150,121.823242 89.088135,121.973045 
	C88.900070,121.863815 88.892845,121.686501 89.025894,121.282959 
z"/>
<path fill="#FF845C" opacity="1.000000" stroke="none" 
	d="
M152.267838,109.371391 
	C152.280777,109.103699 152.507111,109.013603 152.950500,109.044006 
	C152.969513,109.323135 152.740753,109.451294 152.267838,109.371391 
z"/>
<path fill="#2A2A2B" opacity="1.000000" stroke="none" 
	d="
M87.920914,99.290131 
	C88.208603,99.165131 88.491486,99.351357 88.887268,99.769089 
	C88.638809,99.867516 88.277451,99.734444 87.920914,99.290131 
z"/>
<path fill="#2A2A2B" opacity="1.000000" stroke="none" 
	d="
M88.597855,19.794682 
	C88.755035,20.079481 88.581841,20.422926 88.149300,20.902348 
	C88.015800,20.643326 88.141647,20.248329 88.597855,19.794682 
z"/>
<path fill="#E94F18" opacity="1.000000" stroke="none" 
	d="
M88.808426,144.217941 
	C88.992386,144.241272 89.122864,144.547073 89.061821,144.958328 
	C88.831856,144.875992 88.793404,144.688217 88.808426,144.217941 
z"/>
<path fill="#343435" opacity="1.000000" stroke="none" 
	d="
M201.990021,153.740280 
	C201.732773,153.799454 201.562424,153.632492 201.433624,153.437988 
	C201.412048,153.405411 201.570724,153.253479 201.815521,153.080261 
	C202.020248,153.170853 202.055557,153.337875 201.990021,153.740280 
z"/>
<path fill="#29292A" opacity="1.000000" stroke="none" 
	d="
M228.033783,154.290771 
	C228.373581,154.041595 228.639587,154.205917 228.915436,154.726135 
	C228.685089,154.824066 228.363312,154.698135 228.033783,154.290771 
z"/>
<path fill="#FEF5F2" opacity="1.000000" stroke="none" 
	d="
M179.642914,35.981777 
	C176.189911,39.622242 172.782181,42.805267 169.580063,46.183216 
	C168.821396,46.983536 168.351822,48.505390 168.529816,49.564121 
	C168.623886,50.123768 170.379898,50.683117 171.417404,50.750153 
	C174.018478,50.918205 176.637711,50.805660 179.717926,50.805660 
	C179.717926,55.622799 179.717926,59.721233 179.717926,64.128349 
	C186.094849,64.128349 192.001038,64.128349 199.171097,64.128349 
	C196.552628,66.745308 194.522202,68.708450 192.567673,70.744461 
	C190.031830,73.386002 187.697388,76.237259 185.021561,78.724174 
	C181.125595,82.345062 178.923447,86.447052 179.814011,91.925926 
	C180.394073,95.494507 178.657288,96.757462 175.580704,96.157150 
	C170.539719,83.323189 181.394241,77.439171 187.846252,68.923210 
	C183.118805,68.923210 179.236252,68.923210 174.805237,68.923210 
	C174.805237,64.349442 174.805237,59.953758 174.805237,54.746426 
	C168.226212,54.746426 162.170944,54.746426 156.115677,54.746426 
	C155.946854,54.311451 155.778030,53.876476 155.609192,53.441505 
	C160.035110,48.810539 164.138428,43.802166 168.983124,39.661152 
	C173.306931,35.965370 175.367645,31.887234 174.768997,26.309534 
	C174.631271,25.026285 174.872833,23.702328 174.946182,22.273144 
	C178.462448,21.447538 180.109238,22.407230 179.873199,26.109404 
	C179.672256,29.261002 179.787827,32.432781 179.642914,35.981777 
z"/>
<path fill="#FFFCFB" opacity="1.000000" stroke="none" 
	d="
M53.028427,137.802094 
	C55.924801,138.052185 59.203629,137.435654 60.571590,138.773285 
	C62.381565,140.543137 63.435368,143.835419 63.460407,146.486145 
	C63.489685,149.585724 60.969307,151.319244 57.649899,151.286270 
	C55.343872,151.263351 53.037434,151.281845 50.036514,151.281845 
	C50.036514,147.166077 49.933777,143.269928 50.148994,139.391449 
	C50.180710,138.819855 51.719131,138.331863 53.028427,137.802094 
z"/>
<path fill="#FEF7F4" opacity="1.000000" stroke="none" 
	d="
M60.259911,124.421417 
	C63.920280,130.325592 62.548668,133.126053 56.216911,133.860275 
	C54.471973,134.062622 52.762623,134.571869 50.469734,135.061417 
	C50.469734,131.374710 50.469734,128.043365 50.469734,124.212486 
	C53.437473,124.212486 56.655609,124.212486 60.259911,124.421417 
z"/>
<path fill="#FFFCFB" opacity="1.000000" stroke="none" 
	d="
M102.754105,123.845535 
	C104.448402,123.764023 105.768867,123.800560 107.482765,123.783958 
	C113.781776,124.555344 115.670334,126.715858 115.064049,131.953766 
	C114.476929,137.026077 111.669647,138.002747 100.201248,136.540710 
	C100.927116,132.351074 101.653702,128.157318 102.754105,123.845535 
z"/>
<path fill="#FFF8F6" opacity="1.000000" stroke="none" 
	d="
M132.033813,137.156067 
	C130.285538,137.068756 129.000122,136.981354 127.454407,136.876236 
	C127.454407,132.595428 127.454407,128.548264 127.454407,122.949142 
	C132.232269,124.122177 136.756989,124.596565 140.538055,126.527306 
	C141.762299,127.152443 141.764404,131.812180 141.042755,134.246017 
	C139.761871,138.565933 135.601074,136.817291 132.033813,137.156067 
z"/>
</svg>