<svg version="1.1" id="Layer_1" xmlns="http://www.w3.org/2000/svg" xmlns:xlink="http://www.w3.org/1999/xlink" x="0px" y="0px"
	 width="100%" viewBox="0 0 306 164" enable-background="new 0 0 306 164" xml:space="preserve">
<path fill="#FEFEFE" opacity="1.000000" stroke="none" 
	d="
M182.000000,165.000000 
	C121.333344,165.000000 61.166679,165.000000 1.000016,165.000000 
	C1.000011,110.333344 1.000011,55.666695 1.000005,1.000031 
	C102.999969,1.000021 204.999939,1.000021 306.999939,1.000010 
	C306.999939,55.666637 306.999939,110.333275 306.999969,164.999954 
	C265.500000,165.000000 224.000000,165.000000 182.000000,165.000000 
M146.239487,70.835030 
	C145.644241,88.604492 145.644241,88.604492 148.820801,90.018623 
	C148.820801,81.499405 148.820801,73.093552 148.820801,63.184975 
	C139.810760,68.426979 141.439713,78.597450 136.147507,84.811050 
	C133.891708,78.999908 131.504303,73.365181 129.541245,67.586311 
	C128.479202,64.459877 126.783585,64.030701 123.869904,64.874359 
	C124.123795,73.422928 123.526352,81.744492 124.212090,89.995850 
	C124.865318,89.978401 125.518539,89.960953 126.171768,89.943504 
	C126.171768,83.659378 126.171768,77.375259 126.171768,71.091133 
	C126.660278,70.987946 127.148796,70.884766 127.637306,70.781578 
	C130.269974,77.276413 132.902634,83.771248 135.535309,90.266083 
	C136.119003,90.316109 136.702682,90.366127 137.286377,90.416153 
	C139.863220,83.619728 142.440079,76.823311 145.710068,69.741051 
	C145.953903,69.795898 146.197739,69.850739 146.239487,70.835030 
M25.251242,97.579926 
	C25.442648,97.882408 25.634054,98.184891 25.809656,99.192459 
	C26.808969,101.257401 27.468313,103.592865 28.861853,105.344101 
	C39.180141,118.310829 52.381237,127.973930 66.416069,137.500809 
	C78.295525,127.166145 90.378777,117.050583 101.901566,106.332481 
	C104.560852,103.858910 106.610062,99.356194 106.704224,95.729202 
	C107.183723,77.258591 106.974617,58.768539 106.825386,40.286758 
	C106.815735,39.091530 105.519585,37.178200 104.429817,36.831593 
	C91.975990,32.870541 79.477928,28.941122 65.614342,30.112110 
	C52.493275,29.682152 39.950092,32.640316 27.656693,36.815479 
	C26.546947,37.192379 25.220001,39.061207 25.215332,40.242016 
	C25.140446,59.173405 25.264278,78.105576 25.251242,97.579926 
M242.278061,82.035316 
	C242.235443,80.541115 242.320450,79.030235 242.127670,77.555664 
	C241.373184,71.784111 236.576050,69.075386 231.160629,71.118622 
	C229.717484,71.663132 228.039948,71.586433 226.179611,71.833511 
	C224.871765,79.937973 225.522888,96.122482 228.115433,99.097038 
	C228.298203,95.094429 228.446625,91.844246 228.603363,88.411652 
	C236.683884,91.747955 240.397842,90.077538 242.278061,82.035316 
M190.580948,74.003967 
	C197.447037,71.840271 199.159851,72.628105 199.378174,78.322304 
	C196.807114,78.624496 194.149231,78.679123 191.630615,79.299278 
	C188.601639,80.045105 186.592896,82.122742 187.129761,85.449722 
	C187.644318,88.638573 189.807739,90.469254 193.126343,90.064499 
	C195.329391,89.795807 197.460464,88.936752 199.658508,88.332405 
	C200.044556,88.699493 200.772903,89.392067 202.184250,90.734100 
	C202.184250,84.893906 202.559586,79.939583 201.972137,75.102165 
	C201.777527,73.499573 199.329956,71.475395 197.517776,70.910896 
	C193.882660,69.778534 191.418365,70.972977 190.580948,74.003967 
M270.452301,88.007217 
	C271.301544,84.576637 272.909180,81.121643 272.799713,77.721924 
	C272.675110,73.850288 270.021851,71.085678 265.701294,70.654099 
	C261.448761,70.229317 257.886017,71.457092 256.481689,75.697914 
	C255.088699,79.904510 254.886017,84.424881 258.384338,87.828362 
	C261.808105,91.159279 265.863312,90.859947 270.452301,88.007217 
M168.746750,72.840309 
	C164.061584,69.511894 159.397110,69.873749 156.568970,73.785049 
	C153.458969,78.086159 154.418381,85.909943 158.392639,88.656525 
	C162.053802,91.186722 167.692825,90.595566 169.953476,87.444557 
	C158.997101,87.355148 158.638596,87.170227 158.064194,80.906509 
	C162.336365,80.906509 166.578262,80.906509 171.657501,80.906509 
	C170.704666,78.002579 169.958862,75.729576 168.746750,72.840309 
M207.867111,77.563995 
	C210.380615,79.053177 212.982437,80.416336 215.367737,82.088402 
	C216.447266,82.845139 217.096542,84.215630 217.941010,85.307678 
	C216.700089,86.173141 215.524597,87.624008 214.203445,87.771675 
	C212.031036,88.014496 209.764221,87.412903 207.286377,87.139664 
	C209.215073,89.987984 213.422241,91.307549 216.774368,89.690125 
	C218.474136,88.869965 220.330353,86.877350 220.642899,85.148506 
	C220.896759,83.744347 219.265488,81.575966 217.900528,80.418213 
	C216.451614,79.189255 214.193604,78.962997 212.553116,77.893593 
	C211.500885,77.207657 210.926437,75.788795 210.137817,74.698479 
	C211.236893,74.130898 212.304886,73.170364 213.441757,73.080460 
	C215.574570,72.911789 217.747223,73.246727 219.903305,73.372223 
	C219.960434,72.900269 220.017563,72.428322 220.074692,71.956375 
	C217.274689,70.087379 213.777939,69.878723 210.849335,71.199638 
	C209.239319,71.925819 208.648758,74.912201 207.867111,77.563995 
M295.915222,72.551956 
	C294.297821,71.719429 292.680389,70.886902 290.520508,69.775154 
	C290.406860,69.219124 290.130768,67.868347 289.800507,66.252525 
	C288.139923,68.549889 286.708740,70.529915 285.816833,71.763870 
	C286.614624,73.431931 287.583710,74.604340 287.689606,75.850113 
	C287.941315,78.811203 287.660431,81.813675 287.820374,84.787300 
	C288.092590,89.849876 291.508972,91.469719 295.988953,88.769196 
	C289.604218,86.589325 289.366364,85.899551 290.702667,73.175995 
	C292.142822,73.112144 293.613983,73.046913 295.915222,72.551956 
M182.307022,90.095871 
	C183.148178,89.754906 183.989319,89.413933 184.830460,89.072968 
	C185.064041,88.610741 185.297607,88.148521 185.531189,87.686295 
	C178.751984,89.150055 178.834213,85.327065 179.001068,81.324997 
	C179.110992,78.688240 179.021851,76.043175 179.021851,73.388618 
	C181.044067,73.051300 182.790680,72.759956 184.537292,72.468605 
	C184.514877,72.100784 184.492462,71.732964 184.470047,71.365143 
	C182.803329,71.108864 181.136612,70.852577 179.443481,70.592232 
	C179.098526,69.207207 178.753922,67.823563 178.326797,66.108574 
	C176.635529,68.551331 175.319229,70.452492 174.421188,71.749550 
	C175.084732,73.468544 175.871170,74.668159 175.965179,75.919792 
	C176.176300,78.730286 175.918182,81.573967 176.083527,84.390495 
	C176.278244,87.707375 177.556305,90.215508 182.307022,90.095871 
M281.193878,76.849548 
	C281.193878,74.921951 281.193878,72.994354 281.193878,70.904869 
	C278.260254,71.903145 277.195038,79.017471 278.368164,87.788811 
	C278.486481,88.673370 279.588654,89.426331 280.234283,90.240364 
	C280.554108,90.033463 280.873962,89.826561 281.193817,89.619659 
	C281.193817,85.663643 281.193817,81.707619 281.193878,76.849548 
M247.757095,72.525803 
	C247.757095,78.362839 247.757095,84.199875 247.757095,90.036911 
	C248.229950,89.999802 248.702805,89.962700 249.175659,89.925591 
	C251.135132,85.638062 250.720490,65.153511 247.757095,62.102158 
	C247.757095,65.799492 247.757095,68.666130 247.757095,72.525803 
z"/>
<path fill="#2B6793" opacity="1.000000" stroke="none" 
	d="
M66.097206,30.826397 
	C79.477928,28.941122 91.975990,32.870541 104.429817,36.831593 
	C105.519585,37.178200 106.815735,39.091530 106.825386,40.286758 
	C106.974617,58.768539 107.183723,77.258591 106.704224,95.729202 
	C106.610062,99.356194 104.560852,103.858910 101.901566,106.332481 
	C90.378777,117.050583 78.295525,127.166145 66.192734,136.886932 
	C65.976357,123.517815 65.983307,110.762581 66.411903,97.923019 
	C68.404327,97.730354 69.975105,97.622002 71.789520,97.496849 
	C71.789520,95.333412 72.056389,93.635567 71.747009,92.050171 
	C69.421295,80.132530 74.091537,71.727295 84.516632,66.126007 
	C84.660492,66.048721 84.830864,66.020790 85.078537,66.182037 
	C85.331497,66.669693 85.562576,66.864845 85.926476,67.445648 
	C85.991486,83.073944 85.991486,98.236305 85.991486,114.040276 
	C95.109108,106.155472 99.913536,97.415901 99.092781,85.952812 
	C98.690041,80.327927 99.023422,74.650345 99.023491,68.996613 
	C99.023582,60.896759 99.023514,52.796902 99.023514,44.642700 
	C91.086472,43.504684 84.384605,43.629551 79.002693,50.480576 
	C75.365013,55.111237 70.385773,58.688015 66.006851,62.284061 
	C66.037125,51.496758 66.067169,41.161579 66.097206,30.826397 
z"/>
<path fill="#0E78B9" opacity="1.000000" stroke="none" 
	d="
M65.855774,30.469254 
	C66.067169,41.161579 66.037125,51.496758 65.674324,62.347733 
	C60.698406,58.584694 55.417465,54.807079 51.565937,49.906128 
	C46.180988,43.053944 39.485943,43.800186 32.152447,44.350281 
	C32.152447,61.089802 32.152447,77.509506 31.880358,94.112152 
	C32.030060,95.193810 32.451855,96.092522 33.000122,97.317932 
	C33.424385,98.760109 33.722172,99.875603 33.786938,101.166138 
	C34.063221,101.885475 34.572525,102.429749 35.359535,103.155365 
	C38.629837,106.888115 41.622429,110.439529 44.615021,113.990952 
	C45.046154,113.760139 45.477287,113.529327 45.908421,113.298515 
	C45.908421,98.200821 45.908421,83.103119 46.300896,68.004898 
	C47.478168,67.997665 48.262966,67.990936 49.365280,68.089851 
	C51.266491,69.658768 52.697849,71.348137 54.465149,72.538918 
	C58.311668,75.130630 59.597504,78.496284 59.182014,83.102119 
	C58.755383,87.831398 59.087387,92.629120 59.087387,97.589073 
	C61.752926,97.750587 63.871593,97.878967 65.990265,98.007339 
	C65.983307,110.762581 65.976357,123.517815 65.938393,136.757294 
	C52.381237,127.973930 39.180141,118.310829 28.861853,105.344101 
	C27.468313,103.592865 26.808969,101.257401 25.834881,98.569954 
	C25.687704,97.644157 25.515301,97.340866 25.342896,97.037575 
	C25.264278,78.105576 25.140446,59.173405 25.215332,40.242016 
	C25.220001,39.061207 26.546947,37.192379 27.656693,36.815479 
	C39.950092,32.640316 52.493275,29.682152 65.855774,30.469254 
z"/>
<path fill="#0A0A0A" opacity="1.000000" stroke="none" 
	d="
M145.016937,70.026901 
	C142.440079,76.823311 139.863220,83.619728 137.286377,90.416153 
	C136.702682,90.366127 136.119003,90.316109 135.535309,90.266083 
	C132.902634,83.771248 130.269974,77.276413 127.637306,70.781578 
	C127.148796,70.884766 126.660278,70.987946 126.171768,71.091133 
	C126.171768,77.375259 126.171768,83.659378 126.171768,89.943504 
	C125.518539,89.960953 124.865318,89.978401 124.212090,89.995850 
	C123.526352,81.744492 124.123795,73.422928 123.869904,64.874359 
	C126.783585,64.030701 128.479202,64.459877 129.541245,67.586311 
	C131.504303,73.365181 133.891708,78.999908 136.147507,84.811050 
	C141.439713,78.597450 139.810760,68.426979 148.820801,63.184975 
	C148.820801,73.093552 148.820801,81.499405 148.820801,90.018623 
	C145.644241,88.604492 145.644241,88.604492 146.571213,70.149506 
	C146.687469,68.987617 146.472015,68.511269 146.256561,68.034912 
	C145.843353,68.698914 145.430145,69.362907 145.016937,70.026901 
z"/>
<path fill="#0C0C0C" opacity="1.000000" stroke="none" 
	d="
M242.236526,82.424011 
	C240.397842,90.077538 236.683884,91.747955 228.603363,88.411652 
	C228.446625,91.844246 228.298203,95.094429 228.115433,99.097038 
	C225.522888,96.122482 224.871765,79.937973 226.179611,71.833511 
	C228.039948,71.586433 229.717484,71.663132 231.160629,71.118622 
	C236.576050,69.075386 241.373184,71.784111 242.127670,77.555664 
	C242.320450,79.030235 242.235443,80.541115 242.236526,82.424011 
M238.968826,84.251755 
	C239.183060,82.449280 239.765671,80.596443 239.527679,78.855804 
	C239.143173,76.043541 238.340225,72.738457 234.648575,73.172661 
	C232.646759,73.408112 229.875046,74.949028 229.157990,76.629570 
	C227.644043,80.177750 227.472687,84.392586 231.116348,87.025963 
	C234.021698,89.125740 236.807083,88.035172 238.968826,84.251755 
z"/>
<path fill="#101010" opacity="1.000000" stroke="none" 
	d="
M190.258636,73.734245 
	C191.418365,70.972977 193.882660,69.778534 197.517776,70.910896 
	C199.329956,71.475395 201.777527,73.499573 201.972137,75.102165 
	C202.559586,79.939583 202.184250,84.893906 202.184250,90.734100 
	C200.772903,89.392067 200.044556,88.699493 199.658508,88.332405 
	C197.460464,88.936752 195.329391,89.795807 193.126343,90.064499 
	C189.807739,90.469254 187.644318,88.638573 187.129761,85.449722 
	C186.592896,82.122742 188.601639,80.045105 191.630615,79.299278 
	C194.149231,78.679123 196.807114,78.624496 199.378174,78.322304 
	C199.159851,72.628105 197.447037,71.840271 190.258636,73.734245 
M192.105698,81.391708 
	C191.592941,83.062508 191.080185,84.733299 190.567429,86.404099 
	C192.502869,86.761551 195.033691,88.040375 196.236084,87.263405 
	C198.101761,86.057838 199.062347,83.451599 200.406647,81.439163 
	C199.958618,81.037445 199.510605,80.635727 199.062592,80.234009 
	C196.985001,80.521866 194.907394,80.809723 192.105698,81.391708 
z"/>
<path fill="#0F0F0F" opacity="1.000000" stroke="none" 
	d="
M270.149384,88.272842 
	C265.863312,90.859947 261.808105,91.159279 258.384338,87.828362 
	C254.886017,84.424881 255.088699,79.904510 256.481689,75.697914 
	C257.886017,71.457092 261.448761,70.229317 265.701294,70.654099 
	C270.021851,71.085678 272.675110,73.850288 272.799713,77.721924 
	C272.909180,81.121643 271.301544,84.576637 270.149384,88.272842 
M259.049103,83.846718 
	C260.349274,87.482796 262.943756,88.734596 266.500275,87.489922 
	C269.715759,86.364586 271.198059,81.474777 269.881226,77.028076 
	C268.828796,73.474190 266.094025,72.229721 262.895752,73.137199 
	C257.685028,74.615669 258.510620,79.001328 259.049103,83.846718 
z"/>
<path fill="#0F0F0F" opacity="1.000000" stroke="none" 
	d="
M168.979889,73.148438 
	C169.958862,75.729576 170.704666,78.002579 171.657501,80.906509 
	C166.578262,80.906509 162.336365,80.906509 158.064194,80.906509 
	C158.638596,87.170227 158.997101,87.355148 169.953476,87.444557 
	C167.692825,90.595566 162.053802,91.186722 158.392639,88.656525 
	C154.418381,85.909943 153.458969,78.086159 156.568970,73.785049 
	C159.397110,69.873749 164.061584,69.511894 168.979889,73.148438 
M162.513458,78.746925 
	C164.245300,78.746925 165.977142,78.746925 167.990662,78.746925 
	C167.643204,74.868523 166.427185,72.748146 162.797546,72.941429 
	C159.296310,73.127876 157.939056,75.100166 158.111755,78.590599 
	C159.383163,78.646652 160.519974,78.696770 162.513458,78.746925 
z"/>
<path fill="#131313" opacity="1.000000" stroke="none" 
	d="
M207.732834,77.221771 
	C208.648758,74.912201 209.239319,71.925819 210.849335,71.199638 
	C213.777939,69.878723 217.274689,70.087379 220.074692,71.956375 
	C220.017563,72.428322 219.960434,72.900269 219.903305,73.372223 
	C217.747223,73.246727 215.574570,72.911789 213.441757,73.080460 
	C212.304886,73.170364 211.236893,74.130898 210.137817,74.698486 
	C210.926437,75.788795 211.500885,77.207657 212.553116,77.893593 
	C214.193604,78.962997 216.451614,79.189255 217.900528,80.418213 
	C219.265488,81.575966 220.896759,83.744347 220.642899,85.148506 
	C220.330353,86.877350 218.474136,88.869965 216.774368,89.690125 
	C213.422241,91.307549 209.215073,89.987984 207.286377,87.139664 
	C209.764221,87.412903 212.031036,88.014496 214.203445,87.771675 
	C215.524597,87.624008 216.700089,86.173141 217.941010,85.307678 
	C217.096542,84.215630 216.447266,82.845139 215.367737,82.088402 
	C212.982437,80.416336 210.380615,79.053177 207.732834,77.221771 
z"/>
<path fill="#070707" opacity="1.000000" stroke="none" 
	d="
M295.500183,72.766823 
	C293.613983,73.046913 292.142822,73.112144 290.702667,73.175995 
	C289.366364,85.899551 289.604218,86.589325 295.988953,88.769196 
	C291.508972,91.469719 288.092590,89.849876 287.820374,84.787300 
	C287.660431,81.813675 287.941315,78.811203 287.689606,75.850113 
	C287.583710,74.604340 286.614624,73.431931 285.816833,71.763870 
	C286.708740,70.529915 288.139923,68.549889 289.800507,66.252525 
	C290.130768,67.868347 290.406860,69.219124 290.520508,69.775154 
	C292.680389,70.886902 294.297821,71.719429 295.500183,72.766823 
z"/>
<path fill="#0B0B0B" opacity="1.000000" stroke="none" 
	d="
M181.894089,90.107498 
	C177.556305,90.215508 176.278244,87.707375 176.083527,84.390495 
	C175.918182,81.573967 176.176300,78.730286 175.965179,75.919792 
	C175.871170,74.668159 175.084732,73.468544 174.421188,71.749550 
	C175.319229,70.452492 176.635529,68.551331 178.326797,66.108574 
	C178.753922,67.823563 179.098526,69.207207 179.443481,70.592232 
	C181.136612,70.852577 182.803329,71.108864 184.470047,71.365143 
	C184.492462,71.732964 184.514877,72.100784 184.537292,72.468605 
	C182.790680,72.759956 181.044067,73.051300 179.021851,73.388618 
	C179.021851,76.043175 179.110992,78.688240 179.001068,81.324997 
	C178.834213,85.327065 178.751984,89.150055 185.531189,87.686295 
	C185.297607,88.148521 185.064041,88.610741 184.830460,89.072968 
	C183.989319,89.413933 183.148178,89.754906 181.894089,90.107498 
z"/>
<path fill="#272727" opacity="1.000000" stroke="none" 
	d="
M281.193848,77.300575 
	C281.193817,81.707619 281.193817,85.663643 281.193817,89.619659 
	C280.873962,89.826561 280.554108,90.033463 280.234283,90.240364 
	C279.588654,89.426331 278.486481,88.673370 278.368164,87.788811 
	C277.195038,79.017471 278.260254,71.903145 281.193878,70.904869 
	C281.193878,72.994354 281.193878,74.921951 281.193848,77.300575 
z"/>
<path fill="#000000" opacity="1.000000" stroke="none" 
	d="
M247.757095,72.029282 
	C247.757095,68.666130 247.757095,65.799492 247.757095,62.102158 
	C250.720490,65.153511 251.135132,85.638062 249.175659,89.925591 
	C248.702805,89.962700 248.229950,89.999802 247.757095,90.036911 
	C247.757095,84.199875 247.757095,78.362839 247.757095,72.029282 
z"/>
<path fill="#4B4B4B" opacity="1.000000" stroke="none" 
	d="
M145.363495,69.883972 
	C145.430145,69.362907 145.843353,68.698914 146.256561,68.034912 
	C146.472015,68.511269 146.687469,68.987617 146.672241,69.684776 
	C146.197739,69.850739 145.953903,69.795898 145.363495,69.883972 
z"/>
<path fill="#1D80BD" opacity="1.000000" stroke="none" 
	d="
M25.297070,97.308746 
	C25.515301,97.340866 25.687704,97.644157 25.842785,98.217407 
	C25.634054,98.184891 25.442648,97.882408 25.297070,97.308746 
z"/>
<path fill="#FAFCFD" opacity="1.000000" stroke="none" 
	d="
M45.908424,68.005417 
	C45.908421,83.103119 45.908421,98.200821 45.908421,113.298515 
	C45.477287,113.529327 45.046154,113.760139 44.615021,113.990952 
	C41.622429,110.439529 38.629837,106.888115 35.320808,102.867035 
	C34.676235,101.928619 34.348099,101.459854 34.019962,100.991089 
	C33.722172,99.875603 33.424385,98.760109 33.035217,96.995422 
	C32.680042,95.540550 32.416245,94.734879 32.152447,93.929207 
	C32.152447,77.509506 32.152447,61.089802 32.152447,44.350281 
	C39.485943,43.800186 46.180988,43.053944 51.565937,49.906128 
	C55.417465,54.807079 60.698406,58.584694 65.674088,62.799854 
	C70.385773,58.688015 75.365013,55.111237 79.002693,50.480576 
	C84.384605,43.629551 91.086472,43.504684 99.023514,44.642700 
	C99.023514,52.796902 99.023582,60.896759 99.023491,68.996613 
	C99.023422,74.650345 98.690041,80.327927 99.092781,85.952812 
	C99.913536,97.415901 95.109108,106.155472 85.991486,114.040276 
	C85.991486,98.236305 85.991486,83.073944 85.987442,67.209564 
	C85.651878,66.328300 85.320366,66.149063 84.988853,65.969818 
	C84.830864,66.020790 84.660492,66.048721 84.516632,66.126007 
	C74.091537,71.727295 69.421295,80.132530 71.747009,92.050171 
	C72.056389,93.635567 71.789520,95.333412 71.789520,97.496849 
	C69.975105,97.622002 68.404327,97.730354 66.411903,97.923019 
	C63.871593,97.878967 61.752926,97.750587 59.087387,97.589073 
	C59.087387,92.629120 58.755383,87.831398 59.182014,83.102119 
	C59.597504,78.496284 58.311668,75.130630 54.465149,72.538918 
	C52.697849,71.348137 51.266491,69.658768 49.181206,67.778183 
	C47.895466,66.884094 47.111320,66.407318 46.327179,65.930542 
	C46.187592,66.622169 46.048008,67.313789 45.908424,68.005417 
z"/>
<path fill="#216290" opacity="1.000000" stroke="none" 
	d="
M85.078537,66.182037 
	C85.320366,66.149063 85.651878,66.328300 85.922424,66.743629 
	C85.562576,66.864845 85.331497,66.669693 85.078537,66.182037 
z"/>
<path fill="#0370B5" opacity="1.000000" stroke="none" 
	d="
M31.880358,94.112152 
	C32.416245,94.734879 32.680042,95.540550 32.908745,96.668732 
	C32.451855,96.092522 32.030060,95.193810 31.880358,94.112152 
z"/>
<path fill="#0473B7" opacity="1.000000" stroke="none" 
	d="
M46.300896,68.004898 
	C46.048008,67.313789 46.187592,66.622169 46.327179,65.930542 
	C47.111320,66.407318 47.895466,66.884094 48.863693,67.672546 
	C48.262966,67.990936 47.478168,67.997665 46.300896,68.004898 
z"/>
<path fill="#0370B5" opacity="1.000000" stroke="none" 
	d="
M33.786938,101.166138 
	C34.348099,101.459854 34.676235,101.928619 35.043102,102.685707 
	C34.572525,102.429749 34.063221,101.885475 33.786938,101.166138 
z"/>
<path fill="#F4F4F4" opacity="1.000000" stroke="none" 
	d="
M238.841095,84.621864 
	C236.807083,88.035172 234.021698,89.125740 231.116348,87.025963 
	C227.472687,84.392586 227.644043,80.177750 229.157990,76.629570 
	C229.875046,74.949028 232.646759,73.408112 234.648575,73.172661 
	C238.340225,72.738457 239.143173,76.043541 239.527679,78.855804 
	C239.765671,80.596443 239.183060,82.449280 238.841095,84.621864 
z"/>
<path fill="#EEEEEE" opacity="1.000000" stroke="none" 
	d="
M192.467743,81.244644 
	C194.907394,80.809723 196.985001,80.521866 199.062592,80.234009 
	C199.510605,80.635727 199.958618,81.037445 200.406647,81.439163 
	C199.062347,83.451599 198.101761,86.057838 196.236084,87.263405 
	C195.033691,88.040375 192.502869,86.761551 190.567429,86.404099 
	C191.080185,84.733299 191.592941,83.062508 192.467743,81.244644 
z"/>
<path fill="#F7F7F7" opacity="1.000000" stroke="none" 
	d="
M258.977173,83.424973 
	C258.510620,79.001328 257.685028,74.615669 262.895752,73.137199 
	C266.094025,72.229721 268.828796,73.474190 269.881226,77.028076 
	C271.198059,81.474777 269.715759,86.364586 266.500275,87.489922 
	C262.943756,88.734596 260.349274,87.482796 258.977173,83.424973 
z"/>
<path fill="#E3E3E3" opacity="1.000000" stroke="none" 
	d="
M162.085114,78.746910 
	C160.519974,78.696770 159.383163,78.646652 158.111755,78.590599 
	C157.939056,75.100166 159.296310,73.127876 162.797546,72.941429 
	C166.427185,72.748146 167.643204,74.868523 167.990662,78.746925 
	C165.977142,78.746925 164.245300,78.746925 162.085114,78.746910 
z"/>
</svg>